<svg width="515" height="342" viewBox="0 0 515 342" fill="none" xmlns="http://www.w3.org/2000/svg">
    <g filter="url(#filter0_d_30_8757)">
        <rect x="4" width="507" height="334" rx="28" fill="#744227" fill-opacity="0.91"/>
        <g filter="url(#filter1_d_30_8757)">
            <path d="M75.7408 81.715C75.7408 81.9483 75.6824 82.17 75.5658 82.38C75.4491 82.5667 75.2624 82.66 75.0058 82.66C74.6324 82.66 74.3758 82.5783 74.2358 82.415C74.1191 82.2517 74.0141 82.0183 73.9208 81.715C73.8508 81.3883 73.7341 80.9917 73.5708 80.525C73.4308 80.035 73.2674 79.5567 73.0808 79.09C72.9174 78.6 72.7424 78.2267 72.5558 77.97C72.4624 77.83 72.3574 77.7017 72.2408 77.585C72.1241 77.445 72.0074 77.3167 71.8908 77.2C71.7274 76.99 71.4358 76.85 71.0158 76.78C70.5958 76.6867 70.1641 76.64 69.7208 76.64C69.2774 76.6167 68.9274 76.605 68.6708 76.605C68.3674 76.605 68.0408 76.605 67.6908 76.605C67.3408 76.605 67.0374 76.6867 66.7808 76.85C66.5241 76.99 66.3841 77.27 66.3608 77.69C66.3374 78.4833 66.3258 79.3 66.3258 80.14C66.3258 80.9567 66.3258 81.7733 66.3258 82.59C66.3258 85.25 66.3258 87.91 66.3258 90.57C66.3491 93.23 66.3608 95.89 66.3608 98.55C66.3608 98.83 66.3958 99.1567 66.4658 99.53C66.5591 99.9033 66.7924 100.09 67.1658 100.09C67.5158 100.09 67.8541 100.078 68.1808 100.055C68.5308 100.032 68.8808 100.02 69.2308 100.02C69.4174 100.02 69.5574 100.102 69.6508 100.265C69.7441 100.405 69.7908 100.545 69.7908 100.685C69.7908 101.105 69.5924 101.315 69.1958 101.315C68.9391 101.315 68.6708 101.303 68.3908 101.28C68.1341 101.257 67.8774 101.233 67.6208 101.21C67.1774 101.163 66.7341 101.14 66.2908 101.14C65.8474 101.14 65.3924 101.14 64.9258 101.14C64.1558 101.14 63.3858 101.14 62.6158 101.14C61.8458 101.14 61.0758 101.163 60.3058 101.21C60.0258 101.233 59.7341 101.257 59.4308 101.28C59.1508 101.303 58.8708 101.315 58.5908 101.315C58.3808 101.315 58.2174 101.245 58.1008 101.105C57.9841 100.965 57.9258 100.802 57.9258 100.615C57.9258 100.358 58.0308 100.207 58.2408 100.16C58.4508 100.09 58.6491 100.055 58.8358 100.055C59.0924 100.055 59.3258 100.067 59.5358 100.09C59.7691 100.09 60.0024 100.09 60.2358 100.09C60.8424 100.09 61.1808 99.95 61.2508 99.67C61.3441 99.39 61.3908 98.9933 61.3908 98.48V78.95C61.3908 78.04 61.3441 77.4333 61.2508 77.13C61.1574 76.8033 60.9124 76.64 60.5158 76.64C60.1191 76.6167 59.4658 76.605 58.5558 76.605C58.2524 76.605 57.8324 76.6167 57.2958 76.64C56.7824 76.6633 56.3974 76.745 56.1408 76.885C55.8374 77.0483 55.5924 77.27 55.4058 77.55C55.2191 77.8067 55.0674 78.0983 54.9508 78.425C54.7641 78.9617 54.5774 79.51 54.3908 80.07C54.2274 80.63 54.0524 81.1783 53.8658 81.715C53.7724 82.0417 53.6558 82.2867 53.5158 82.45C53.3758 82.59 53.1191 82.66 52.7458 82.66C52.3024 82.66 52.0808 82.4267 52.0808 81.96C52.0808 81.3533 52.1391 80.665 52.2558 79.895C52.3958 79.1017 52.4774 78.3667 52.5008 77.69C52.5241 77.3167 52.5241 76.9433 52.5008 76.57C52.5008 76.1733 52.5358 75.8 52.6058 75.45C52.6291 75.2867 52.7108 75.205 52.8508 75.205C53.1074 75.205 53.3641 75.24 53.6208 75.31C53.9008 75.38 54.1691 75.4383 54.4258 75.485C54.7058 75.5083 54.9858 75.5317 55.2658 75.555C55.5691 75.555 55.8724 75.5667 56.1758 75.59C57.4124 75.6133 58.6958 75.6367 60.0258 75.66C61.3791 75.66 62.6624 75.66 63.8758 75.66C65.2524 75.66 66.6991 75.6483 68.2158 75.625C69.7324 75.6017 71.1791 75.59 72.5558 75.59C72.6958 75.59 72.8358 75.59 72.9758 75.59C73.1391 75.59 73.2908 75.5783 73.4308 75.555C73.6874 75.5083 73.9324 75.4383 74.1658 75.345C74.4224 75.2517 74.6791 75.205 74.9358 75.205C75.0524 75.205 75.1341 75.2633 75.1808 75.38C75.2508 75.7067 75.2974 76.0917 75.3208 76.535C75.3441 76.955 75.3674 77.3283 75.3908 77.655C75.4608 78.3083 75.5308 78.985 75.6008 79.685C75.6941 80.3617 75.7408 81.0383 75.7408 81.715ZM92.1358 81.75C92.1358 80.0233 91.7508 78.6933 90.9808 77.76C90.2342 76.8267 88.9625 76.36 87.1658 76.36H86.5358C86.3492 76.36 86.1508 76.36 85.9408 76.36C85.7308 76.36 85.5325 76.3833 85.3458 76.43C85.1125 76.5 84.9608 76.605 84.8908 76.745C84.8208 76.885 84.7858 77.0833 84.7858 77.34C84.7858 78.6933 84.7742 80.0467 84.7508 81.4C84.7508 82.73 84.7508 84.0833 84.7508 85.46V86.895C84.9142 86.9183 85.0775 86.9417 85.2408 86.965C85.4042 86.965 85.5675 86.965 85.7308 86.965C86.9442 86.965 88.0292 86.825 88.9858 86.545C89.9658 86.2417 90.7358 85.7167 91.2958 84.97C91.8558 84.2 92.1358 83.1267 92.1358 81.75ZM101.026 100.51C101.026 100.72 100.827 100.883 100.431 101C100.057 101.093 99.6025 101.152 99.0658 101.175C98.5525 101.222 98.0625 101.245 97.5958 101.245C97.1292 101.268 96.8142 101.28 96.6508 101.28C95.7642 101.28 94.9592 101.187 94.2358 101C93.5358 100.813 92.9408 100.288 92.4508 99.425C91.3775 97.5583 90.3275 95.6683 89.3008 93.755C88.2742 91.8183 87.2475 89.8933 86.2208 87.98L84.7508 87.945C84.7508 89.7883 84.7508 91.6433 84.7508 93.51C84.7742 95.3533 84.7858 97.2083 84.7858 99.075C84.7858 99.285 84.8442 99.495 84.9608 99.705C85.0775 99.8917 85.2525 99.985 85.4858 99.985C85.7658 99.985 86.0458 99.9733 86.3258 99.95C86.6058 99.9267 86.8858 99.915 87.1658 99.915C87.2825 99.915 87.3875 99.9967 87.4808 100.16C87.5975 100.3 87.6558 100.428 87.6558 100.545C87.6558 100.708 87.6092 100.848 87.5158 100.965C87.4458 101.082 87.3292 101.14 87.1658 101.14C86.9558 101.14 86.7575 101.128 86.5708 101.105C86.3842 101.082 86.1975 101.07 86.0108 101.07C85.5908 101.023 85.1708 101 84.7508 101C84.3308 101 83.9108 101 83.4908 101C82.4875 101 81.4725 101.023 80.4458 101.07C79.4425 101.117 78.4275 101.14 77.4008 101.14C77.0042 101.14 76.8058 100.93 76.8058 100.51C76.8058 100.347 76.8758 100.218 77.0158 100.125C77.1558 100.008 77.3075 99.95 77.4708 99.95C77.7042 99.95 77.9375 99.9617 78.1708 99.985C78.4042 100.008 78.6375 100.02 78.8708 100.02C79.1975 100.02 79.4775 99.9617 79.7108 99.845C79.9442 99.7283 80.0608 99.4833 80.0608 99.11V77.48C80.0608 77.13 79.9908 76.8967 79.8508 76.78C79.7108 76.64 79.4775 76.57 79.1508 76.57C78.9175 76.57 78.6842 76.5817 78.4508 76.605C78.2175 76.6283 77.9842 76.64 77.7508 76.64C77.5875 76.64 77.4125 76.5817 77.2258 76.465C77.0625 76.3483 76.9808 76.1967 76.9808 76.01C76.9808 75.5667 77.2375 75.345 77.7508 75.345C77.9842 75.345 78.2175 75.3567 78.4508 75.38C78.6842 75.38 78.9175 75.3917 79.1508 75.415C79.6175 75.4383 80.0958 75.4617 80.5858 75.485C81.0758 75.485 81.5542 75.485 82.0208 75.485C83.1408 75.485 84.2492 75.45 85.3458 75.38C86.4658 75.2867 87.5742 75.24 88.6708 75.24C89.6275 75.24 90.6075 75.3333 91.6108 75.52C92.6142 75.6833 93.5475 75.9867 94.4108 76.43C95.2975 76.8733 96.0092 77.48 96.5458 78.25C97.0825 78.9967 97.3508 79.9533 97.3508 81.12C97.3508 82.5433 97.0592 83.6867 96.4758 84.55C95.9158 85.4133 95.1342 86.0783 94.1308 86.545C93.1508 87.0117 92.0308 87.3733 90.7708 87.63C91.7975 89.4967 92.9058 91.3283 94.0958 93.125C95.2858 94.9217 96.4875 96.695 97.7008 98.445C98.0275 98.8883 98.4475 99.285 98.9608 99.635C99.4742 99.9617 99.9992 100.125 100.536 100.125C100.699 100.125 100.816 100.148 100.886 100.195C100.979 100.218 101.026 100.323 101.026 100.51ZM125.387 75.87C125.387 76.2433 125.247 76.4417 124.967 76.465C124.71 76.465 124.454 76.465 124.197 76.465C124.034 76.465 123.847 76.4767 123.637 76.5C123.427 76.5 123.252 76.535 123.112 76.605C122.972 76.6517 122.809 76.78 122.622 76.99C122.459 77.2 122.342 77.375 122.272 77.515C121.059 79.5217 119.857 81.54 118.667 83.57C117.477 85.5767 116.287 87.5833 115.097 89.59C115.12 91.0833 115.12 92.5883 115.097 94.105C115.097 95.5983 115.097 97.0917 115.097 98.585C115.097 98.8883 115.144 99.215 115.237 99.565C115.33 99.8917 115.564 100.055 115.937 100.055C116.264 100.055 116.579 100.043 116.882 100.02C117.209 99.9967 117.524 99.985 117.827 99.985C118.014 99.985 118.154 100.055 118.247 100.195C118.364 100.312 118.422 100.452 118.422 100.615C118.422 100.778 118.352 100.907 118.212 101C118.095 101.117 117.967 101.175 117.827 101.175C117.104 101.175 116.38 101.152 115.657 101.105C114.934 101.058 114.21 101.035 113.487 101.035C112.787 101.035 112.087 101.035 111.387 101.035C110.71 101.035 110.034 101.058 109.357 101.105C109.077 101.128 108.797 101.14 108.517 101.14C108.237 101.163 107.957 101.175 107.677 101.175C107.234 101.175 107.012 100.977 107.012 100.58C107.012 100.16 107.222 99.95 107.642 99.95C107.899 99.95 108.144 99.9617 108.377 99.985C108.61 100.008 108.844 100.02 109.077 100.02C109.567 100.02 109.882 99.9383 110.022 99.775C110.185 99.5883 110.255 99.3433 110.232 99.04C110.232 98.7367 110.232 98.41 110.232 98.06L110.267 91.655C110.267 90.9317 110.162 90.29 109.952 89.73C109.765 89.1467 109.532 88.54 109.252 87.91C108.832 86.93 108.377 85.9617 107.887 85.005C107.42 84.0483 106.942 83.0917 106.452 82.135C106.055 81.3417 105.635 80.5367 105.192 79.72C104.772 78.9033 104.317 78.1333 103.827 77.41C103.71 77.2233 103.524 77.06 103.267 76.92C103.034 76.7567 102.8 76.675 102.567 76.675C102.404 76.675 102.229 76.6983 102.042 76.745C101.855 76.7683 101.669 76.78 101.482 76.78C101.295 76.78 101.12 76.7217 100.957 76.605C100.817 76.4883 100.747 76.3367 100.747 76.15C100.747 75.7767 100.945 75.5667 101.342 75.52C101.762 75.4733 102.182 75.4383 102.602 75.415C103.022 75.3917 103.442 75.3683 103.862 75.345C104.469 75.275 105.075 75.205 105.682 75.135C106.312 75.065 106.93 75.03 107.537 75.03C107.817 75.03 108.015 75.0883 108.132 75.205C108.272 75.2983 108.4 75.4733 108.517 75.73C109.404 77.83 110.302 79.9183 111.212 81.995C112.145 84.0717 113.079 86.1483 114.012 88.225C114.222 87.8983 114.549 87.35 114.992 86.58C115.435 85.81 115.914 84.9467 116.427 83.99C116.964 83.01 117.465 82.0417 117.932 81.085C118.422 80.105 118.819 79.2417 119.122 78.495C119.425 77.725 119.577 77.1767 119.577 76.85C119.577 76.64 119.507 76.5117 119.367 76.465C119.25 76.395 119.099 76.36 118.912 76.36C118.679 76.36 118.445 76.3833 118.212 76.43C118.002 76.4533 117.78 76.465 117.547 76.465C117.034 76.465 116.777 76.2433 116.777 75.8C116.777 75.4267 116.987 75.24 117.407 75.24C118.084 75.24 118.76 75.2633 119.437 75.31C120.114 75.3333 120.79 75.345 121.467 75.345C122.027 75.345 122.587 75.3333 123.147 75.31C123.707 75.2633 124.267 75.24 124.827 75.24C125.2 75.24 125.387 75.45 125.387 75.87ZM155.324 88.295C155.324 87.4083 155.254 86.4283 155.114 85.355C154.974 84.2583 154.741 83.1733 154.414 82.1C154.088 81.0267 153.644 80.0467 153.084 79.16C152.524 78.25 151.824 77.5267 150.984 76.99C150.168 76.43 149.188 76.15 148.044 76.15C146.901 76.15 145.909 76.43 145.069 76.99C144.229 77.5267 143.518 78.25 142.934 79.16C142.374 80.0467 141.919 81.0267 141.569 82.1C141.219 83.1733 140.963 84.2583 140.799 85.355C140.659 86.4283 140.589 87.4083 140.589 88.295C140.589 89.1817 140.671 90.1617 140.834 91.235C140.998 92.285 141.254 93.3467 141.604 94.42C141.954 95.47 142.409 96.4383 142.969 97.325C143.553 98.1883 144.264 98.8883 145.104 99.425C145.944 99.9383 146.924 100.195 148.044 100.195C149.211 100.195 150.203 99.9383 151.019 99.425C151.859 98.8883 152.548 98.1883 153.084 97.325C153.644 96.4617 154.088 95.505 154.414 94.455C154.741 93.405 154.974 92.3433 155.114 91.27C155.254 90.1967 155.324 89.205 155.324 88.295ZM160.399 88.225C160.399 90.8617 159.933 93.16 158.999 95.12C158.066 97.08 156.678 98.5967 154.834 99.67C153.014 100.743 150.751 101.28 148.044 101.28C145.384 101.28 143.133 100.743 141.289 99.67C139.446 98.5733 138.046 97.0567 137.089 95.12C136.133 93.16 135.654 90.885 135.654 88.295C135.654 86.475 135.934 84.7717 136.494 83.185C137.078 81.575 137.906 80.1633 138.979 78.95C140.076 77.7367 141.383 76.7917 142.899 76.115C144.439 75.4383 146.154 75.1 148.044 75.1C150.704 75.1 152.956 75.66 154.799 76.78C156.643 77.8767 158.031 79.4167 158.964 81.4C159.921 83.36 160.399 85.635 160.399 88.225ZM188.445 75.975C188.445 76.1383 188.387 76.3017 188.27 76.465C188.177 76.605 188.037 76.675 187.85 76.675C187.547 76.675 187.244 76.675 186.94 76.675C186.637 76.6517 186.334 76.64 186.03 76.64C185.727 76.64 185.54 76.7917 185.47 77.095C185.4 77.375 185.365 77.6317 185.365 77.865C185.365 77.9817 185.365 78.11 185.365 78.25C185.389 78.3667 185.4 78.4833 185.4 78.6C185.4 80.7233 185.4 82.835 185.4 84.935C185.424 87.035 185.435 89.135 185.435 91.235C185.435 94.315 184.677 96.7533 183.16 98.55C181.644 100.323 179.287 101.21 176.09 101.21C172.94 101.21 170.49 100.452 168.74 98.935C166.99 97.4183 166.115 95.0267 166.115 91.76V90.185C166.115 88.1783 166.115 86.1717 166.115 84.165C166.139 82.135 166.15 80.105 166.15 78.075C166.15 77.865 166.127 77.585 166.08 77.235C166.034 76.8617 165.87 76.6633 165.59 76.64C165.287 76.6167 164.972 76.6167 164.645 76.64C164.342 76.6633 164.039 76.675 163.735 76.675C163.572 76.675 163.42 76.6167 163.28 76.5C163.14 76.36 163.07 76.2083 163.07 76.045C163.07 75.8583 163.129 75.695 163.245 75.555C163.385 75.415 163.549 75.345 163.735 75.345C164.015 75.345 164.284 75.3567 164.54 75.38C164.82 75.4033 165.089 75.4267 165.345 75.45C165.882 75.4733 166.419 75.4967 166.955 75.52C167.492 75.52 168.017 75.52 168.53 75.52C169.067 75.52 169.58 75.52 170.07 75.52C170.584 75.52 171.097 75.5083 171.61 75.485C171.937 75.4617 172.252 75.4383 172.555 75.415C172.882 75.3683 173.197 75.345 173.5 75.345C173.687 75.345 173.827 75.415 173.92 75.555C174.037 75.695 174.095 75.8583 174.095 76.045C174.095 76.2083 174.037 76.36 173.92 76.5C173.827 76.6167 173.687 76.675 173.5 76.675C173.197 76.675 172.894 76.6633 172.59 76.64C172.31 76.6167 172.019 76.605 171.715 76.605C171.482 76.605 171.33 76.71 171.26 76.92C171.19 77.1067 171.144 77.2933 171.12 77.48C171.097 77.8533 171.085 78.2267 171.085 78.6C171.109 78.9733 171.12 79.3467 171.12 79.72C171.12 81.82 171.097 83.92 171.05 86.02C171.027 88.0967 171.015 90.185 171.015 92.285C171.015 93.2883 171.05 94.245 171.12 95.155C171.214 96.0417 171.424 96.835 171.75 97.535C172.077 98.235 172.59 98.7833 173.29 99.18C174.014 99.5767 175.005 99.775 176.265 99.775C177.945 99.775 179.287 99.39 180.29 98.62C181.294 97.8267 182.017 96.8 182.46 95.54C182.904 94.2567 183.125 92.8683 183.125 91.375C183.125 89.065 183.079 86.755 182.985 84.445C182.892 82.135 182.845 79.825 182.845 77.515C182.845 77.165 182.764 76.9317 182.6 76.815C182.437 76.675 182.192 76.605 181.865 76.605C181.632 76.605 181.399 76.6167 181.165 76.64C180.955 76.6633 180.722 76.675 180.465 76.675C180.302 76.675 180.15 76.6167 180.01 76.5C179.87 76.3833 179.8 76.2317 179.8 76.045C179.8 75.8583 179.859 75.695 179.975 75.555C180.115 75.415 180.279 75.345 180.465 75.345C180.839 75.345 181.2 75.3683 181.55 75.415C181.9 75.4383 182.262 75.4617 182.635 75.485C182.869 75.5083 183.102 75.52 183.335 75.52C183.569 75.52 183.802 75.52 184.035 75.52C184.292 75.52 184.549 75.52 184.805 75.52C185.085 75.52 185.354 75.5083 185.61 75.485C185.984 75.485 186.345 75.4617 186.695 75.415C187.069 75.3683 187.442 75.345 187.815 75.345C188.235 75.345 188.445 75.555 188.445 75.975ZM205.066 81.75C205.066 80.0233 204.681 78.6933 203.911 77.76C203.164 76.8267 201.892 76.36 200.096 76.36H199.466C199.279 76.36 199.081 76.36 198.871 76.36C198.661 76.36 198.462 76.3833 198.276 76.43C198.042 76.5 197.891 76.605 197.821 76.745C197.751 76.885 197.716 77.0833 197.716 77.34C197.716 78.6933 197.704 80.0467 197.681 81.4C197.681 82.73 197.681 84.0833 197.681 85.46V86.895C197.844 86.9183 198.007 86.9417 198.171 86.965C198.334 86.965 198.497 86.965 198.661 86.965C199.874 86.965 200.959 86.825 201.916 86.545C202.896 86.2417 203.666 85.7167 204.226 84.97C204.786 84.2 205.066 83.1267 205.066 81.75ZM213.956 100.51C213.956 100.72 213.757 100.883 213.361 101C212.987 101.093 212.532 101.152 211.996 101.175C211.482 101.222 210.992 101.245 210.526 101.245C210.059 101.268 209.744 101.28 209.581 101.28C208.694 101.28 207.889 101.187 207.166 101C206.466 100.813 205.871 100.288 205.381 99.425C204.307 97.5583 203.257 95.6683 202.231 93.755C201.204 91.8183 200.177 89.8933 199.151 87.98L197.681 87.945C197.681 89.7883 197.681 91.6433 197.681 93.51C197.704 95.3533 197.716 97.2083 197.716 99.075C197.716 99.285 197.774 99.495 197.891 99.705C198.007 99.8917 198.182 99.985 198.416 99.985C198.696 99.985 198.976 99.9733 199.256 99.95C199.536 99.9267 199.816 99.915 200.096 99.915C200.212 99.915 200.317 99.9967 200.411 100.16C200.527 100.3 200.586 100.428 200.586 100.545C200.586 100.708 200.539 100.848 200.446 100.965C200.376 101.082 200.259 101.14 200.096 101.14C199.886 101.14 199.687 101.128 199.501 101.105C199.314 101.082 199.127 101.07 198.941 101.07C198.521 101.023 198.101 101 197.681 101C197.261 101 196.841 101 196.421 101C195.417 101 194.402 101.023 193.376 101.07C192.372 101.117 191.357 101.14 190.331 101.14C189.934 101.14 189.736 100.93 189.736 100.51C189.736 100.347 189.806 100.218 189.946 100.125C190.086 100.008 190.237 99.95 190.401 99.95C190.634 99.95 190.867 99.9617 191.101 99.985C191.334 100.008 191.567 100.02 191.801 100.02C192.127 100.02 192.407 99.9617 192.641 99.845C192.874 99.7283 192.991 99.4833 192.991 99.11V77.48C192.991 77.13 192.921 76.8967 192.781 76.78C192.641 76.64 192.407 76.57 192.081 76.57C191.847 76.57 191.614 76.5817 191.381 76.605C191.147 76.6283 190.914 76.64 190.681 76.64C190.517 76.64 190.342 76.5817 190.156 76.465C189.992 76.3483 189.911 76.1967 189.911 76.01C189.911 75.5667 190.167 75.345 190.681 75.345C190.914 75.345 191.147 75.3567 191.381 75.38C191.614 75.38 191.847 75.3917 192.081 75.415C192.547 75.4383 193.026 75.4617 193.516 75.485C194.006 75.485 194.484 75.485 194.951 75.485C196.071 75.485 197.179 75.45 198.276 75.38C199.396 75.2867 200.504 75.24 201.601 75.24C202.557 75.24 203.537 75.3333 204.541 75.52C205.544 75.6833 206.477 75.9867 207.341 76.43C208.227 76.8733 208.939 77.48 209.476 78.25C210.012 78.9967 210.281 79.9533 210.281 81.12C210.281 82.5433 209.989 83.6867 209.406 84.55C208.846 85.4133 208.064 86.0783 207.061 86.545C206.081 87.0117 204.961 87.3733 203.701 87.63C204.727 89.4967 205.836 91.3283 207.026 93.125C208.216 94.9217 209.417 96.695 210.631 98.445C210.957 98.8883 211.377 99.285 211.891 99.635C212.404 99.9617 212.929 100.125 213.466 100.125C213.629 100.125 213.746 100.148 213.816 100.195C213.909 100.218 213.956 100.323 213.956 100.51ZM249.202 75.87C249.202 76.3133 248.98 76.535 248.537 76.535C248.35 76.535 248.163 76.5233 247.977 76.5C247.79 76.4767 247.603 76.465 247.417 76.465C247.323 76.465 247.218 76.4767 247.102 76.5C246.985 76.5 246.868 76.5 246.752 76.5C246.518 76.5 246.367 76.6517 246.297 76.955C246.227 77.235 246.192 77.55 246.192 77.9C246.192 78.2267 246.192 78.46 246.192 78.6V100.405C246.192 100.568 246.168 100.708 246.122 100.825C246.098 100.942 245.982 101.012 245.772 101.035C245.445 101.082 245.095 101.093 244.722 101.07C244.348 101.07 243.998 101.082 243.672 101.105C243.485 100.498 243.217 99.915 242.867 99.355C242.54 98.795 242.19 98.2583 241.817 97.745C239.67 94.6183 237.395 91.5967 234.992 88.68C232.612 85.7633 230.325 82.765 228.132 79.685C228.132 82.835 228.12 85.985 228.097 89.135C228.097 92.2617 228.097 95.4 228.097 98.55C228.097 98.76 228.12 99.0283 228.167 99.355C228.237 99.6583 228.412 99.81 228.692 99.81C229.018 99.81 229.345 99.7983 229.672 99.775C230.022 99.7517 230.348 99.74 230.652 99.74C230.838 99.74 230.955 99.8333 231.002 100.02C231.072 100.183 231.107 100.323 231.107 100.44C231.107 100.603 231.06 100.755 230.967 100.895C230.897 101.035 230.768 101.105 230.582 101.105C230.185 101.105 229.788 101.082 229.392 101.035C228.995 100.988 228.598 100.965 228.202 100.965C227.665 100.965 227.117 100.977 226.557 101C225.997 101 225.448 101.023 224.912 101.07C224.702 101.093 224.492 101.105 224.282 101.105C224.095 101.128 223.908 101.14 223.722 101.14C223.255 101.14 223.022 100.895 223.022 100.405C223.022 100.218 223.092 100.067 223.232 99.95C223.372 99.81 223.523 99.74 223.687 99.74C223.92 99.74 224.142 99.7633 224.352 99.81C224.562 99.8333 224.783 99.845 225.017 99.845C225.367 99.845 225.623 99.7983 225.787 99.705C225.973 99.5883 226.067 99.32 226.067 98.9C226.067 95.68 226.09 92.46 226.137 89.24C226.207 86.02 226.242 82.8 226.242 79.58C226.242 79.2767 226.242 78.985 226.242 78.705C226.242 78.425 226.242 78.1333 226.242 77.83C226.242 77.5267 226.183 77.2233 226.067 76.92C225.973 76.6167 225.74 76.465 225.367 76.465C225.087 76.465 224.795 76.4767 224.492 76.5C224.212 76.5233 223.92 76.535 223.617 76.535C223.22 76.535 223.022 76.3133 223.022 75.87C223.022 75.45 223.232 75.24 223.652 75.24C224.258 75.24 224.865 75.2517 225.472 75.275C226.078 75.2983 226.673 75.31 227.257 75.31C227.793 75.31 228.33 75.31 228.867 75.31C229.427 75.2867 229.975 75.275 230.512 75.275C231.888 77.1417 233.335 78.95 234.852 80.7C236.392 82.4267 237.862 84.2117 239.262 86.055C240.078 87.1517 240.907 88.2483 241.747 89.345C242.587 90.4417 243.438 91.5267 244.302 92.6C244.302 90.1267 244.302 87.6533 244.302 85.18C244.325 82.7067 244.337 80.2333 244.337 77.76C244.337 77.55 244.302 77.2933 244.232 76.99C244.185 76.6633 244.01 76.5 243.707 76.5H242.762C242.622 76.5 242.482 76.5233 242.342 76.57C242.202 76.5933 242.062 76.605 241.922 76.605C241.478 76.605 241.257 76.36 241.257 75.87C241.257 75.59 241.338 75.4267 241.502 75.38C241.665 75.31 241.863 75.275 242.097 75.275C242.563 75.275 243.018 75.2867 243.462 75.31C243.928 75.3333 244.383 75.345 244.827 75.345C245.433 75.345 246.04 75.3217 246.647 75.275C247.277 75.2283 247.895 75.205 248.502 75.205C248.688 75.205 248.852 75.275 248.992 75.415C249.132 75.5317 249.202 75.6833 249.202 75.87ZM272.381 94.98C272.381 95.3533 272.335 95.7383 272.241 96.135C272.171 96.5083 272.113 96.8933 272.066 97.29C272.02 97.7333 271.961 98.1883 271.891 98.655C271.845 99.1217 271.798 99.5883 271.751 100.055C271.681 100.428 271.576 100.685 271.436 100.825C271.296 100.942 271.028 101 270.631 101C268.251 101 265.871 100.988 263.491 100.965C261.111 100.918 258.731 100.895 256.351 100.895C255.535 100.895 254.718 100.93 253.901 101C253.085 101.093 252.268 101.14 251.451 101.14C251.055 101.14 250.856 100.942 250.856 100.545C250.856 100.148 251.031 99.95 251.381 99.95C251.731 99.9267 252.105 99.8917 252.501 99.845C252.968 99.7983 253.341 99.6233 253.621 99.32C253.925 98.9933 254.076 98.34 254.076 97.36V78.495C254.076 78.1217 254.006 77.76 253.866 77.41C253.75 77.06 253.458 76.885 252.991 76.885C252.711 76.885 252.431 76.8967 252.151 76.92C251.871 76.92 251.591 76.92 251.311 76.92C250.728 76.92 250.436 76.64 250.436 76.08C250.436 75.8 250.53 75.625 250.716 75.555C250.903 75.4617 251.113 75.415 251.346 75.415C252.023 75.415 252.688 75.4383 253.341 75.485C253.995 75.5083 254.648 75.52 255.301 75.52C257.495 75.52 259.688 75.5083 261.881 75.485C264.075 75.4383 266.268 75.415 268.461 75.415C268.881 75.415 269.301 75.4033 269.721 75.38C270.141 75.3333 270.561 75.2867 270.981 75.24C271.028 75.6133 271.075 75.9867 271.121 76.36C271.191 76.7333 271.25 77.1067 271.296 77.48C271.366 77.9233 271.46 78.39 271.576 78.88C271.716 79.37 271.786 79.8483 271.786 80.315C271.786 80.595 271.67 80.8283 271.436 81.015C271.203 81.1783 270.958 81.26 270.701 81.26C270.141 81.26 269.768 81.015 269.581 80.525C269.231 79.4283 268.706 78.5183 268.006 77.795C267.33 77.0483 266.373 76.675 265.136 76.675H258.836V86.965C259.723 86.965 260.586 86.9533 261.426 86.93C262.29 86.9067 263.153 86.86 264.016 86.79C264.88 86.72 265.708 86.58 266.501 86.37C266.828 86.3 267.166 86.2067 267.516 86.09C267.89 85.9733 268.24 85.915 268.566 85.915C268.846 85.915 268.986 86.0433 268.986 86.3C268.986 86.4633 268.94 86.7083 268.846 87.035C268.776 87.3617 268.718 87.6067 268.671 87.77C268.555 88.0733 268.438 88.26 268.321 88.33C268.205 88.3767 267.995 88.4 267.691 88.4C267.131 88.4 266.583 88.365 266.046 88.295C265.16 88.2017 264.261 88.1433 263.351 88.12C262.441 88.0733 261.531 88.05 260.621 88.05C260.108 88.05 259.676 88.19 259.326 88.47C259 88.7267 258.836 89.135 258.836 89.695V98.305C258.836 98.865 258.906 99.2617 259.046 99.495C259.21 99.7283 259.583 99.845 260.166 99.845C260.796 99.845 261.496 99.845 262.266 99.845C263.036 99.845 263.818 99.81 264.611 99.74C265.428 99.67 266.186 99.5183 266.886 99.285C267.586 99.0517 268.17 98.7017 268.636 98.235C269.033 97.8383 269.418 97.3133 269.791 96.66C270.165 96.0067 270.468 95.4233 270.701 94.91C270.818 94.63 270.935 94.4433 271.051 94.35C271.168 94.2333 271.378 94.175 271.681 94.175C271.961 94.175 272.148 94.245 272.241 94.385C272.335 94.525 272.381 94.7233 272.381 94.98ZM307.655 75.905C307.655 76.2783 307.527 76.4883 307.27 76.535C307.013 76.5817 306.757 76.605 306.5 76.605C306.197 76.605 305.917 76.6633 305.66 76.78C305.403 76.8967 305.205 77.095 305.065 77.375C304.948 77.6783 304.855 78.005 304.785 78.355C304.715 78.705 304.645 79.0317 304.575 79.335C303.805 82.9983 302.977 86.65 302.09 90.29C301.227 93.93 300.375 97.5817 299.535 101.245H295.51C294.74 98.3283 293.923 95.435 293.06 92.565C292.197 89.695 291.357 86.8133 290.54 83.92C289.723 86.8133 288.872 89.7067 287.985 92.6C287.098 95.47 286.212 98.3517 285.325 101.245H281.545C281.055 98.6783 280.542 96.1233 280.005 93.58C279.468 91.0367 278.92 88.4933 278.36 85.95L277.24 80.805C277.147 80.3383 277.053 79.8717 276.96 79.405C276.867 78.915 276.762 78.4483 276.645 78.005C276.505 77.4917 276.33 77.165 276.12 77.025C275.933 76.8617 275.688 76.7917 275.385 76.815C275.105 76.815 274.755 76.815 274.335 76.815C274.102 76.815 273.927 76.7333 273.81 76.57C273.717 76.3833 273.67 76.1967 273.67 76.01C273.67 75.8467 273.752 75.7067 273.915 75.59C274.102 75.4733 274.265 75.415 274.405 75.415C275.082 75.415 275.77 75.4383 276.47 75.485C277.17 75.5083 277.87 75.52 278.57 75.52C279.41 75.52 280.238 75.5083 281.055 75.485C281.895 75.4383 282.723 75.415 283.54 75.415C283.703 75.415 283.843 75.485 283.96 75.625C284.1 75.765 284.17 75.905 284.17 76.045C284.17 76.2083 284.112 76.36 283.995 76.5C283.878 76.64 283.727 76.71 283.54 76.71C283.377 76.71 283.213 76.71 283.05 76.71C282.91 76.6867 282.758 76.675 282.595 76.675C282.222 76.675 281.965 76.745 281.825 76.885C281.708 77.0017 281.65 77.235 281.65 77.585C281.65 77.7017 281.65 77.83 281.65 77.97C281.673 78.0867 281.697 78.2033 281.72 78.32C282.187 81.3533 282.712 84.3867 283.295 87.42C283.902 90.4533 284.462 93.4983 284.975 96.555C285.628 94.2683 286.305 91.9933 287.005 89.73C287.705 87.4433 288.347 85.1567 288.93 82.87C289.14 82.1233 289.327 81.3883 289.49 80.665C289.677 79.9183 289.863 79.1833 290.05 78.46C290.12 78.1333 290.19 77.8183 290.26 77.515C290.353 77.1883 290.447 76.8733 290.54 76.57C290.657 76.2433 290.785 76.0217 290.925 75.905C291.088 75.7883 291.345 75.73 291.695 75.73C291.975 75.73 292.232 75.7533 292.465 75.8C292.698 75.8467 292.873 76.01 292.99 76.29C293.13 76.5233 293.223 76.815 293.27 77.165C293.34 77.4917 293.41 77.795 293.48 78.075C293.69 78.8217 293.9 79.58 294.11 80.35C294.32 81.0967 294.53 81.855 294.74 82.625C295.417 84.9583 296.082 87.2917 296.735 89.625C297.412 91.935 298.088 94.2683 298.765 96.625C299.092 94.9683 299.43 93.3233 299.78 91.69C300.153 90.0333 300.492 88.3767 300.795 86.72C301.028 85.4367 301.262 84.1533 301.495 82.87C301.752 81.5867 301.962 80.3033 302.125 79.02C302.172 78.74 302.207 78.46 302.23 78.18C302.253 77.8767 302.265 77.585 302.265 77.305C302.265 77.1883 302.195 77.025 302.055 76.815C301.938 76.5817 301.798 76.465 301.635 76.465C301.495 76.465 301.355 76.465 301.215 76.465C301.075 76.465 300.935 76.465 300.795 76.465C300.562 76.465 300.328 76.4767 300.095 76.5C299.885 76.5233 299.652 76.535 299.395 76.535C299.232 76.535 299.092 76.4767 298.975 76.36C298.882 76.2433 298.835 76.1033 298.835 75.94C298.835 75.52 299.01 75.31 299.36 75.31C299.78 75.31 300.2 75.3217 300.62 75.345C301.063 75.3683 301.495 75.38 301.915 75.38C302.778 75.38 303.63 75.3683 304.47 75.345C305.31 75.3217 306.162 75.31 307.025 75.31C307.445 75.31 307.655 75.5083 307.655 75.905ZM341.815 95.12C341.815 95.2367 341.757 95.4 341.64 95.61C341.523 95.82 341.442 95.9833 341.395 96.1C341.092 96.6367 340.625 97.1967 339.995 97.78C339.365 98.3633 338.782 98.8417 338.245 99.215C337.148 99.985 335.993 100.487 334.78 100.72C333.567 100.953 332.307 101.07 331 101.07C328.457 101.07 326.287 100.545 324.49 99.495C322.693 98.4217 321.317 96.94 320.36 95.05C319.427 93.1367 318.96 90.9317 318.96 88.435C318.96 85.9617 319.415 83.7333 320.325 81.75C321.235 79.7667 322.577 78.1917 324.35 77.025C326.147 75.835 328.34 75.24 330.93 75.24C332.097 75.24 333.088 75.38 333.905 75.66C334.722 75.94 335.643 76.2667 336.67 76.64C337.16 76.8033 337.65 76.9317 338.14 77.025C338.63 77.095 339.132 77.1533 339.645 77.2C339.668 77.7133 339.703 78.2383 339.75 78.775C339.797 79.2883 339.855 79.8133 339.925 80.35C339.972 80.7933 340.053 81.2483 340.17 81.715C340.287 82.1817 340.345 82.6483 340.345 83.115C340.345 83.5583 340.182 83.885 339.855 84.095C339.552 84.305 339.202 84.41 338.805 84.41C338.152 84.41 337.697 84.1417 337.44 83.605C337.37 83.4183 337.323 83.22 337.3 83.01C337.277 82.7767 337.242 82.5783 337.195 82.415C337.032 81.6683 336.74 80.8633 336.32 80C335.923 79.1133 335.445 78.4133 334.885 77.9C334.442 77.5033 333.835 77.1533 333.065 76.85C332.295 76.5233 331.607 76.36 331 76.36C330.417 76.36 329.868 76.4883 329.355 76.745C328.865 77.0017 328.387 77.3167 327.92 77.69C326.917 78.53 326.123 79.5333 325.54 80.7C324.957 81.8667 324.548 83.115 324.315 84.445C324.082 85.7517 323.965 87.035 323.965 88.295C323.965 89.135 324.012 89.975 324.105 90.815C324.222 91.6317 324.397 92.4483 324.63 93.265C324.957 94.3617 325.423 95.4 326.03 96.38C326.66 97.3367 327.43 98.1183 328.34 98.725C329.273 99.3083 330.347 99.6 331.56 99.6C333.287 99.6 334.85 99.1683 336.25 98.305C337.673 97.4417 338.852 96.31 339.785 94.91C339.925 94.6767 340.065 94.4783 340.205 94.315C340.368 94.1283 340.602 94.035 340.905 94.035C341.208 94.035 341.43 94.1517 341.57 94.385C341.733 94.6183 341.815 94.8633 341.815 95.12ZM363.991 88.295C363.991 87.4083 363.921 86.4283 363.781 85.355C363.641 84.2583 363.408 83.1733 363.081 82.1C362.755 81.0267 362.311 80.0467 361.751 79.16C361.191 78.25 360.491 77.5267 359.651 76.99C358.835 76.43 357.855 76.15 356.711 76.15C355.568 76.15 354.576 76.43 353.736 76.99C352.896 77.5267 352.185 78.25 351.601 79.16C351.041 80.0467 350.586 81.0267 350.236 82.1C349.886 83.1733 349.63 84.2583 349.466 85.355C349.326 86.4283 349.256 87.4083 349.256 88.295C349.256 89.1817 349.338 90.1617 349.501 91.235C349.665 92.285 349.921 93.3467 350.271 94.42C350.621 95.47 351.076 96.4383 351.636 97.325C352.22 98.1883 352.931 98.8883 353.771 99.425C354.611 99.9383 355.591 100.195 356.711 100.195C357.878 100.195 358.87 99.9383 359.686 99.425C360.526 98.8883 361.215 98.1883 361.751 97.325C362.311 96.4617 362.755 95.505 363.081 94.455C363.408 93.405 363.641 92.3433 363.781 91.27C363.921 90.1967 363.991 89.205 363.991 88.295ZM369.066 88.225C369.066 90.8617 368.6 93.16 367.666 95.12C366.733 97.08 365.345 98.5967 363.501 99.67C361.681 100.743 359.418 101.28 356.711 101.28C354.051 101.28 351.8 100.743 349.956 99.67C348.113 98.5733 346.713 97.0567 345.756 95.12C344.8 93.16 344.321 90.885 344.321 88.295C344.321 86.475 344.601 84.7717 345.161 83.185C345.745 81.575 346.573 80.1633 347.646 78.95C348.743 77.7367 350.05 76.7917 351.566 76.115C353.106 75.4383 354.821 75.1 356.711 75.1C359.371 75.1 361.623 75.66 363.466 76.78C365.31 77.8767 366.698 79.4167 367.631 81.4C368.588 83.36 369.066 85.635 369.066 88.225ZM392.037 80.42C392.037 80.6533 391.921 80.84 391.687 80.98C391.454 81.0967 391.232 81.155 391.022 81.155C390.766 81.155 390.532 81.1083 390.322 81.015C390.136 80.8983 390.007 80.7 389.937 80.42C389.634 79.44 389.167 78.5883 388.537 77.865C387.907 77.1183 387.032 76.745 385.912 76.745H380.382V87.28C380.732 87.28 381.082 87.28 381.432 87.28C381.782 87.28 382.132 87.28 382.482 87.28C383.346 87.28 384.209 87.2567 385.072 87.21C385.959 87.1633 386.822 87.0467 387.662 86.86C387.989 86.7667 388.327 86.6617 388.677 86.545C389.027 86.4283 389.377 86.37 389.727 86.37C390.007 86.37 390.147 86.4983 390.147 86.755C390.147 86.9417 390.101 87.1867 390.007 87.49C389.937 87.7933 389.867 88.0383 389.797 88.225C389.704 88.5283 389.587 88.715 389.447 88.785C389.331 88.8317 389.121 88.855 388.817 88.855C387.744 88.855 386.682 88.7967 385.632 88.68C384.582 88.5633 383.521 88.505 382.447 88.505C381.957 88.505 381.491 88.61 381.047 88.82C380.604 89.0067 380.382 89.4033 380.382 90.01V98.13C380.382 98.83 380.511 99.3083 380.767 99.565C381.024 99.8217 381.374 99.9617 381.817 99.985C382.261 99.985 382.739 99.985 383.252 99.985C383.439 99.985 383.602 100.032 383.742 100.125C383.906 100.195 383.987 100.335 383.987 100.545C383.987 101.035 383.742 101.28 383.252 101.28C383.136 101.28 383.019 101.28 382.902 101.28C382.786 101.28 382.669 101.268 382.552 101.245C381.782 101.198 381.012 101.175 380.242 101.175C379.472 101.175 378.714 101.175 377.967 101.175C377.197 101.175 376.427 101.198 375.657 101.245C374.887 101.315 374.117 101.35 373.347 101.35C373.161 101.35 372.986 101.315 372.822 101.245C372.659 101.198 372.577 101.058 372.577 100.825C372.577 100.522 372.671 100.335 372.857 100.265C373.067 100.195 373.324 100.172 373.627 100.195C373.931 100.195 374.234 100.16 374.537 100.09C374.841 99.9967 375.086 99.7867 375.272 99.46C375.482 99.11 375.587 98.5617 375.587 97.815V78.565C375.587 78.0283 375.506 77.62 375.342 77.34C375.179 77.0367 374.806 76.885 374.222 76.885C374.012 76.885 373.802 76.8967 373.592 76.92C373.406 76.92 373.207 76.92 372.997 76.92C372.717 76.92 372.437 76.8967 372.157 76.85C371.901 76.78 371.772 76.5583 371.772 76.185C371.772 75.975 371.842 75.8117 371.982 75.695C372.122 75.5783 372.286 75.52 372.472 75.52C373.289 75.52 374.094 75.5433 374.887 75.59C375.704 75.6133 376.509 75.625 377.302 75.625C380.756 75.625 384.197 75.59 387.627 75.52C388.234 75.4967 388.852 75.4733 389.482 75.45C390.112 75.4267 390.731 75.3683 391.337 75.275C391.431 75.9517 391.524 76.6283 391.617 77.305C391.711 77.9817 391.804 78.6583 391.897 79.335C391.921 79.4983 391.944 79.6733 391.967 79.86C392.014 80.0467 392.037 80.2333 392.037 80.42ZM413.4 80.42C413.4 80.6533 413.283 80.84 413.05 80.98C412.816 81.0967 412.595 81.155 412.385 81.155C412.128 81.155 411.895 81.1083 411.685 81.015C411.498 80.8983 411.37 80.7 411.3 80.42C410.996 79.44 410.53 78.5883 409.9 77.865C409.27 77.1183 408.395 76.745 407.275 76.745H401.745V87.28C402.095 87.28 402.445 87.28 402.795 87.28C403.145 87.28 403.495 87.28 403.845 87.28C404.708 87.28 405.571 87.2567 406.435 87.21C407.321 87.1633 408.185 87.0467 409.025 86.86C409.351 86.7667 409.69 86.6617 410.04 86.545C410.39 86.4283 410.74 86.37 411.09 86.37C411.37 86.37 411.51 86.4983 411.51 86.755C411.51 86.9417 411.463 87.1867 411.37 87.49C411.3 87.7933 411.23 88.0383 411.16 88.225C411.066 88.5283 410.95 88.715 410.81 88.785C410.693 88.8317 410.483 88.855 410.18 88.855C409.106 88.855 408.045 88.7967 406.995 88.68C405.945 88.5633 404.883 88.505 403.81 88.505C403.32 88.505 402.853 88.61 402.41 88.82C401.966 89.0067 401.745 89.4033 401.745 90.01V98.13C401.745 98.83 401.873 99.3083 402.13 99.565C402.386 99.8217 402.736 99.9617 403.18 99.985C403.623 99.985 404.101 99.985 404.615 99.985C404.801 99.985 404.965 100.032 405.105 100.125C405.268 100.195 405.35 100.335 405.35 100.545C405.35 101.035 405.105 101.28 404.615 101.28C404.498 101.28 404.381 101.28 404.265 101.28C404.148 101.28 404.031 101.268 403.915 101.245C403.145 101.198 402.375 101.175 401.605 101.175C400.835 101.175 400.076 101.175 399.33 101.175C398.56 101.175 397.79 101.198 397.02 101.245C396.25 101.315 395.48 101.35 394.71 101.35C394.523 101.35 394.348 101.315 394.185 101.245C394.021 101.198 393.94 101.058 393.94 100.825C393.94 100.522 394.033 100.335 394.22 100.265C394.43 100.195 394.686 100.172 394.99 100.195C395.293 100.195 395.596 100.16 395.9 100.09C396.203 99.9967 396.448 99.7867 396.635 99.46C396.845 99.11 396.95 98.5617 396.95 97.815V78.565C396.95 78.0283 396.868 77.62 396.705 77.34C396.541 77.0367 396.168 76.885 395.585 76.885C395.375 76.885 395.165 76.8967 394.955 76.92C394.768 76.92 394.57 76.92 394.36 76.92C394.08 76.92 393.8 76.8967 393.52 76.85C393.263 76.78 393.135 76.5583 393.135 76.185C393.135 75.975 393.205 75.8117 393.345 75.695C393.485 75.5783 393.648 75.52 393.835 75.52C394.651 75.52 395.456 75.5433 396.25 75.59C397.066 75.6133 397.871 75.625 398.665 75.625C402.118 75.625 405.56 75.59 408.99 75.52C409.596 75.4967 410.215 75.4733 410.845 75.45C411.475 75.4267 412.093 75.3683 412.7 75.275C412.793 75.9517 412.886 76.6283 412.98 77.305C413.073 77.9817 413.166 78.6583 413.26 79.335C413.283 79.4983 413.306 79.6733 413.33 79.86C413.376 80.0467 413.4 80.2333 413.4 80.42ZM436.512 94.98C436.512 95.3533 436.465 95.7383 436.372 96.135C436.302 96.5083 436.244 96.8933 436.197 97.29C436.15 97.7333 436.092 98.1883 436.022 98.655C435.975 99.1217 435.929 99.5883 435.882 100.055C435.812 100.428 435.707 100.685 435.567 100.825C435.427 100.942 435.159 101 434.762 101C432.382 101 430.002 100.988 427.622 100.965C425.242 100.918 422.862 100.895 420.482 100.895C419.665 100.895 418.849 100.93 418.032 101C417.215 101.093 416.399 101.14 415.582 101.14C415.185 101.14 414.987 100.942 414.987 100.545C414.987 100.148 415.162 99.95 415.512 99.95C415.862 99.9267 416.235 99.8917 416.632 99.845C417.099 99.7983 417.472 99.6233 417.752 99.32C418.055 98.9933 418.207 98.34 418.207 97.36V78.495C418.207 78.1217 418.137 77.76 417.997 77.41C417.88 77.06 417.589 76.885 417.122 76.885C416.842 76.885 416.562 76.8967 416.282 76.92C416.002 76.92 415.722 76.92 415.442 76.92C414.859 76.92 414.567 76.64 414.567 76.08C414.567 75.8 414.66 75.625 414.847 75.555C415.034 75.4617 415.244 75.415 415.477 75.415C416.154 75.415 416.819 75.4383 417.472 75.485C418.125 75.5083 418.779 75.52 419.432 75.52C421.625 75.52 423.819 75.5083 426.012 75.485C428.205 75.4383 430.399 75.415 432.592 75.415C433.012 75.415 433.432 75.4033 433.852 75.38C434.272 75.3333 434.692 75.2867 435.112 75.24C435.159 75.6133 435.205 75.9867 435.252 76.36C435.322 76.7333 435.38 77.1067 435.427 77.48C435.497 77.9233 435.59 78.39 435.707 78.88C435.847 79.37 435.917 79.8483 435.917 80.315C435.917 80.595 435.8 80.8283 435.567 81.015C435.334 81.1783 435.089 81.26 434.832 81.26C434.272 81.26 433.899 81.015 433.712 80.525C433.362 79.4283 432.837 78.5183 432.137 77.795C431.46 77.0483 430.504 76.675 429.267 76.675H422.967V86.965C423.854 86.965 424.717 86.9533 425.557 86.93C426.42 86.9067 427.284 86.86 428.147 86.79C429.01 86.72 429.839 86.58 430.632 86.37C430.959 86.3 431.297 86.2067 431.647 86.09C432.02 85.9733 432.37 85.915 432.697 85.915C432.977 85.915 433.117 86.0433 433.117 86.3C433.117 86.4633 433.07 86.7083 432.977 87.035C432.907 87.3617 432.849 87.6067 432.802 87.77C432.685 88.0733 432.569 88.26 432.452 88.33C432.335 88.3767 432.125 88.4 431.822 88.4C431.262 88.4 430.714 88.365 430.177 88.295C429.29 88.2017 428.392 88.1433 427.482 88.12C426.572 88.0733 425.662 88.05 424.752 88.05C424.239 88.05 423.807 88.19 423.457 88.47C423.13 88.7267 422.967 89.135 422.967 89.695V98.305C422.967 98.865 423.037 99.2617 423.177 99.495C423.34 99.7283 423.714 99.845 424.297 99.845C424.927 99.845 425.627 99.845 426.397 99.845C427.167 99.845 427.949 99.81 428.742 99.74C429.559 99.67 430.317 99.5183 431.017 99.285C431.717 99.0517 432.3 98.7017 432.767 98.235C433.164 97.8383 433.549 97.3133 433.922 96.66C434.295 96.0067 434.599 95.4233 434.832 94.91C434.949 94.63 435.065 94.4433 435.182 94.35C435.299 94.2333 435.509 94.175 435.812 94.175C436.092 94.175 436.279 94.245 436.372 94.385C436.465 94.525 436.512 94.7233 436.512 94.98ZM460.096 94.98C460.096 95.3533 460.049 95.7383 459.956 96.135C459.886 96.5083 459.828 96.8933 459.781 97.29C459.734 97.7333 459.676 98.1883 459.606 98.655C459.559 99.1217 459.513 99.5883 459.466 100.055C459.396 100.428 459.291 100.685 459.151 100.825C459.011 100.942 458.743 101 458.346 101C455.966 101 453.586 100.988 451.206 100.965C448.826 100.918 446.446 100.895 444.066 100.895C443.249 100.895 442.433 100.93 441.616 101C440.799 101.093 439.983 101.14 439.166 101.14C438.769 101.14 438.571 100.942 438.571 100.545C438.571 100.148 438.746 99.95 439.096 99.95C439.446 99.9267 439.819 99.8917 440.216 99.845C440.683 99.7983 441.056 99.6233 441.336 99.32C441.639 98.9933 441.791 98.34 441.791 97.36V78.495C441.791 78.1217 441.721 77.76 441.581 77.41C441.464 77.06 441.173 76.885 440.706 76.885C440.426 76.885 440.146 76.8967 439.866 76.92C439.586 76.92 439.306 76.92 439.026 76.92C438.443 76.92 438.151 76.64 438.151 76.08C438.151 75.8 438.244 75.625 438.431 75.555C438.618 75.4617 438.828 75.415 439.061 75.415C439.738 75.415 440.403 75.4383 441.056 75.485C441.709 75.5083 442.363 75.52 443.016 75.52C445.209 75.52 447.403 75.5083 449.596 75.485C451.789 75.4383 453.983 75.415 456.176 75.415C456.596 75.415 457.016 75.4033 457.436 75.38C457.856 75.3333 458.276 75.2867 458.696 75.24C458.743 75.6133 458.789 75.9867 458.836 76.36C458.906 76.7333 458.964 77.1067 459.011 77.48C459.081 77.9233 459.174 78.39 459.291 78.88C459.431 79.37 459.501 79.8483 459.501 80.315C459.501 80.595 459.384 80.8283 459.151 81.015C458.918 81.1783 458.673 81.26 458.416 81.26C457.856 81.26 457.483 81.015 457.296 80.525C456.946 79.4283 456.421 78.5183 455.721 77.795C455.044 77.0483 454.088 76.675 452.851 76.675H446.551V86.965C447.438 86.965 448.301 86.9533 449.141 86.93C450.004 86.9067 450.868 86.86 451.731 86.79C452.594 86.72 453.423 86.58 454.216 86.37C454.543 86.3 454.881 86.2067 455.231 86.09C455.604 85.9733 455.954 85.915 456.281 85.915C456.561 85.915 456.701 86.0433 456.701 86.3C456.701 86.4633 456.654 86.7083 456.561 87.035C456.491 87.3617 456.433 87.6067 456.386 87.77C456.269 88.0733 456.153 88.26 456.036 88.33C455.919 88.3767 455.709 88.4 455.406 88.4C454.846 88.4 454.298 88.365 453.761 88.295C452.874 88.2017 451.976 88.1433 451.066 88.12C450.156 88.0733 449.246 88.05 448.336 88.05C447.823 88.05 447.391 88.19 447.041 88.47C446.714 88.7267 446.551 89.135 446.551 89.695V98.305C446.551 98.865 446.621 99.2617 446.761 99.495C446.924 99.7283 447.298 99.845 447.881 99.845C448.511 99.845 449.211 99.845 449.981 99.845C450.751 99.845 451.533 99.81 452.326 99.74C453.143 99.67 453.901 99.5183 454.601 99.285C455.301 99.0517 455.884 98.7017 456.351 98.235C456.748 97.8383 457.133 97.3133 457.506 96.66C457.879 96.0067 458.183 95.4233 458.416 94.91C458.533 94.63 458.649 94.4433 458.766 94.35C458.883 94.2333 459.093 94.175 459.396 94.175C459.676 94.175 459.863 94.245 459.956 94.385C460.049 94.525 460.096 94.7233 460.096 94.98Z" fill="white"/>
        </g>
    </g>
    <defs>
        <filter id="filter0_d_30_8757" x="0" y="0" width="515" height="342" filterUnits="userSpaceOnUse" color-interpolation-filters="sRGB">
            <feFlood flood-opacity="0" result="BackgroundImageFix"/>
            <feColorMatrix in="SourceAlpha" type="matrix" values="0 0 0 0 0 0 0 0 0 0 0 0 0 0 0 0 0 0 127 0" result="hardAlpha"/>
            <feOffset dy="4"/>
            <feGaussianBlur stdDeviation="2"/>
            <feComposite in2="hardAlpha" operator="out"/>
            <feColorMatrix type="matrix" values="0 0 0 0 0 0 0 0 0 0 0 0 0 0 0 0 0 0 0.25 0"/>
            <feBlend mode="normal" in2="BackgroundImageFix" result="effect1_dropShadow_30_8757"/>
            <feBlend mode="normal" in="SourceGraphic" in2="effect1_dropShadow_30_8757" result="shape"/>
        </filter>
        <filter id="filter1_d_30_8757" x="48.0808" y="75.03" width="416.015" height="34.32" filterUnits="userSpaceOnUse" color-interpolation-filters="sRGB">
            <feFlood flood-opacity="0" result="BackgroundImageFix"/>
            <feColorMatrix in="SourceAlpha" type="matrix" values="0 0 0 0 0 0 0 0 0 0 0 0 0 0 0 0 0 0 127 0" result="hardAlpha"/>
            <feOffset dy="4"/>
            <feGaussianBlur stdDeviation="2"/>
            <feComposite in2="hardAlpha" operator="out"/>
            <feColorMatrix type="matrix" values="0 0 0 0 0 0 0 0 0 0 0 0 0 0 0 0 0 0 0.25 0"/>
            <feBlend mode="normal" in2="BackgroundImageFix" result="effect1_dropShadow_30_8757"/>
            <feBlend mode="normal" in="SourceGraphic" in2="effect1_dropShadow_30_8757" result="shape"/>
        </filter>
    </defs>
</svg>
