<svg width="253" height="79" viewBox="0 0 253 79" fill="none" xmlns="http://www.w3.org/2000/svg">
    <g clip-path="url(#clip0_50_22810)">
        <path d="M130.697 27.7185C125.615 27.7185 120.771 25.2629 117.05 20.8056C114.124 17.1941 112.138 12.9147 111.268 8.34908C111.223 8.12797 111.228 7.89961 111.281 7.68044C111.335 7.46128 111.437 7.25678 111.579 7.08168C111.722 6.90659 111.901 6.76526 112.105 6.66788C112.308 6.5705 112.531 6.51949 112.756 6.51854H148.63C148.858 6.51241 149.084 6.55872 149.292 6.65389C149.499 6.74905 149.681 6.89054 149.825 7.06742C149.969 7.24431 150.07 7.45187 150.121 7.67409C150.172 7.8963 150.171 8.12724 150.119 8.34908C149.251 12.9141 147.267 17.1935 144.344 20.8056C140.579 25.2629 135.735 27.7185 130.697 27.7185Z" fill="white"/>
        <path d="M155.32 1.2428C154.966 0.853284 154.536 0.541633 154.055 0.327683C153.575 0.113734 153.055 0.00217572 152.529 0.00012207H108.783C108.257 0.0026297 107.737 0.114387 107.257 0.328308C106.777 0.542228 106.346 0.853642 105.992 1.2428C105.184 2.12788 104.745 3.28862 104.764 4.48715C102.644 4.86169 100.714 5.94818 99.2943 7.56726C97.8744 9.18634 97.0491 11.2412 96.9546 13.3926C96.86 15.544 97.502 17.6634 98.7744 19.4007C100.047 21.1381 101.874 22.3896 103.953 22.9487C104.937 23.2367 105.957 23.3845 106.982 23.3877C108.25 23.376 109.507 23.1547 110.702 22.7329C111.347 23.6867 112.045 24.6034 112.793 25.4787C115.278 28.4217 118.393 30.7667 121.909 32.3395H115.524C115.053 32.3395 114.6 32.5268 114.267 32.8604C113.933 33.1939 113.746 33.6462 113.746 34.1179C113.746 34.5896 113.933 35.0419 114.267 35.3755C114.6 35.709 115.053 35.8964 115.524 35.8964H145.81C146.282 35.8964 146.734 35.709 147.068 35.3755C147.401 35.0419 147.588 34.5896 147.588 34.1179C147.588 33.6462 147.401 33.1939 147.068 32.8604C146.734 32.5268 146.282 32.3395 145.81 32.3395H139.336C142.848 30.7645 145.961 28.4197 148.444 25.4787C153.139 20.0318 155.997 12.6799 156.503 4.77736C156.558 4.13861 156.481 3.49539 156.278 2.88744C156.074 2.27949 155.748 1.71974 155.32 1.2428ZM104.883 19.5183C103.606 19.1769 102.48 18.4169 101.686 17.3598C100.891 16.3027 100.475 15.0098 100.502 13.6878C100.529 12.3658 100.999 11.0912 101.837 10.068C102.675 9.04482 103.831 8.33214 105.122 8.04403C105.708 12.072 106.966 15.9732 108.842 19.5853C107.541 19.9209 106.173 19.8977 104.883 19.5183ZM130.697 29.7276C119.535 29.7276 110.152 18.6403 109.244 4.49459H152.142C151.577 18.164 141.777 29.7276 130.697 29.7276Z" fill="#4E3D33"/>
        <path d="M112.92 13.9299C113.923 16.4183 115.304 18.7374 117.013 20.8056C120.733 25.2703 125.577 27.7184 130.66 27.7184C135.742 27.7184 140.579 25.2628 144.307 20.8056C146.011 18.7352 147.389 16.4166 148.392 13.9299H112.92Z" fill="#4E3D33"/>
        <path opacity="0.8" d="M217.193 27.7185C212.118 27.7185 207.274 25.2629 203.553 20.8056C200.625 17.1959 198.638 12.9158 197.772 8.34908C197.719 8.12724 197.718 7.8963 197.769 7.67409C197.82 7.45187 197.921 7.24431 198.065 7.06742C198.209 6.89054 198.391 6.74905 198.599 6.65389C198.806 6.55872 199.032 6.51241 199.26 6.51854H235.134C235.362 6.51241 235.588 6.55872 235.795 6.65389C236.002 6.74905 236.185 6.89054 236.329 7.06742C236.472 7.24431 236.574 7.45187 236.625 7.67409C236.675 7.8963 236.675 8.12724 236.622 8.34908C235.752 12.9147 233.766 17.1941 230.84 20.8056C227.12 25.2629 222.275 27.7185 217.193 27.7185Z" fill="white"/>
        <path d="M217.193 27.7185C212.118 27.7185 207.274 25.2629 203.553 20.8056C200.625 17.1959 198.638 12.9158 197.772 8.34908C197.719 8.12724 197.718 7.8963 197.769 7.67409C197.82 7.45187 197.921 7.24431 198.065 7.06742C198.209 6.89054 198.391 6.74905 198.599 6.65389C198.806 6.55872 199.032 6.51241 199.26 6.51854H235.134C235.362 6.51241 235.588 6.55872 235.795 6.65389C236.002 6.74905 236.185 6.89054 236.329 7.06742C236.472 7.24431 236.574 7.45187 236.625 7.67409C236.675 7.8963 236.675 8.12724 236.622 8.34908C235.752 12.9147 233.766 17.1941 230.84 20.8056C227.12 25.2629 222.275 27.7185 217.193 27.7185Z" fill="white"/>
        <path d="M241.861 1.2428C241.507 0.853642 241.076 0.542228 240.596 0.328308C240.116 0.114387 239.596 0.0026297 239.07 0.00012207H195.323C194.798 0.0026297 194.278 0.114387 193.798 0.328308C193.317 0.542228 192.887 0.853642 192.533 1.2428C191.721 2.12585 191.282 3.28796 191.305 4.48715C189.185 4.86169 187.255 5.94818 185.835 7.56726C184.415 9.18634 183.59 11.2412 183.495 13.3926C183.401 15.544 184.043 17.6634 185.315 19.4007C186.588 21.1381 188.414 22.3896 190.494 22.9487C191.478 23.2381 192.497 23.3859 193.523 23.3877C194.803 23.3801 196.073 23.1588 197.28 22.7329C197.923 23.6885 198.621 24.6053 199.371 25.4787C201.855 28.4197 204.967 30.7645 208.479 32.3395H202.132C201.66 32.3395 201.208 32.5268 200.875 32.8604C200.541 33.1939 200.354 33.6462 200.354 34.1179C200.354 34.5896 200.541 35.0419 200.875 35.3755C201.208 35.709 201.66 35.8964 202.132 35.8964H232.425C232.897 35.8964 233.349 35.709 233.683 35.3755C234.016 35.0419 234.204 34.5896 234.204 34.1179C234.204 33.6462 234.016 33.1939 233.683 32.8604C233.349 32.5268 232.897 32.3395 232.425 32.3395H225.944C229.456 30.7645 232.569 28.4197 235.052 25.4787C239.74 20.0318 242.605 12.6799 243.111 4.77736C243.157 4.13389 243.069 3.48786 242.854 2.87967C242.639 2.27148 242.301 1.71423 241.861 1.2428ZM191.424 19.5183C190.147 19.1769 189.021 18.4169 188.226 17.3598C187.432 16.3027 187.015 15.0098 187.043 13.6878C187.07 12.3658 187.54 11.0912 188.378 10.068C189.215 9.04482 190.372 8.33214 191.662 8.04403C192.245 12.0728 193.503 15.9745 195.383 19.5853C194.082 19.9209 192.714 19.8977 191.424 19.5183ZM217.193 29.7276C206.076 29.7276 196.655 18.6403 195.748 4.49459H238.646C238.118 18.164 228.318 29.7276 217.193 29.7276Z" fill="#4E3D33"/>
        <path d="M201.5 17.9482C202.116 18.948 202.802 19.9029 203.553 20.8057C207.274 25.2704 212.118 27.7185 217.193 27.7185C222.268 27.7185 227.119 25.2629 230.84 20.8057C231.591 19.9029 232.278 18.948 232.894 17.9482H201.5Z" fill="#4E3D33"/>
        <path d="M201.5 17.9482H232.894C234.287 15.6728 235.354 13.213 236.064 10.641H198.33C199.039 13.213 200.106 15.6728 201.5 17.9482Z" fill="#FFE6CF"/>
        <path d="M68.7864 1.2428C68.4328 0.853642 68.0021 0.542228 67.5217 0.328308C67.0414 0.114387 66.5218 0.0026297 65.996 0.00012207H22.2419C21.716 0.0026297 21.1964 0.114387 20.7161 0.328308C20.2357 0.542228 19.8051 0.853642 19.4514 1.2428C18.6451 2.12862 18.2084 3.2895 18.2311 4.48715C16.1101 4.86069 14.1799 5.94636 12.7592 7.56491C11.3385 9.18346 10.5123 11.2381 10.4169 13.3896C10.3215 15.5411 10.9627 17.6608 12.2345 19.3988C13.5064 21.1367 15.3329 22.3889 17.4125 22.9487C18.3988 23.2372 19.4209 23.385 20.4485 23.3877C21.7164 23.3767 22.9737 23.1554 24.1691 22.7329C24.814 23.6867 25.5121 24.6034 26.2601 25.4787C28.7459 28.42 31.8612 30.7648 35.3755 32.3395H28.991C28.5193 32.3395 28.067 32.5268 27.7335 32.8604C27.3999 33.1939 27.2126 33.6462 27.2126 34.1179C27.2126 34.5896 27.3999 35.0419 27.7335 35.3755C28.067 35.709 28.5193 35.8964 28.991 35.8964H59.284C59.7557 35.8964 60.2081 35.709 60.5416 35.3755C60.8751 35.0419 61.0625 34.5896 61.0625 34.1179C61.0625 33.6462 60.8751 33.1939 60.5416 32.8604C60.2081 32.5268 59.7557 32.3395 59.284 32.3395H52.8028C56.316 30.7665 59.4292 28.4214 61.9108 25.4787C66.6062 20.0318 69.471 12.6799 69.977 4.77736C70.0274 4.13834 69.948 3.49573 69.7434 2.88827C69.5387 2.2808 69.2132 1.72106 68.7864 1.2428ZM18.3352 19.5183C17.0631 19.1706 15.9436 18.4077 15.1546 17.3509C14.3657 16.2941 13.9525 15.0039 13.9807 13.6854C14.0089 12.3668 14.4769 11.0955 15.3104 10.0734C16.1438 9.05131 17.2949 8.33703 18.5808 8.04403C19.1635 12.0729 20.4214 15.9746 22.3014 19.5853C20.9976 19.9222 19.6269 19.8991 18.3352 19.5183ZM44.1115 29.7276C32.9944 29.7276 23.5738 18.6403 22.666 4.49459H65.5569C65.0361 18.164 55.236 29.7276 44.1189 29.7276H44.1115Z" fill="#4E3D33"/>
        <path d="M28.4178 17.9482C29.0341 18.948 29.7204 19.9029 30.4716 20.8057C34.1922 25.2704 39.0364 27.7185 44.1187 27.7185C49.2011 27.7185 54.0453 25.2629 57.7658 20.8057C58.517 19.9029 59.2034 18.948 59.8196 17.9482H28.4178Z" fill="#4E3D33"/>
    </g>
    <circle cx="20.0913" cy="67.7148" r="8.92941" fill="#FFE7CF"/>
    <path d="M41.4265 68.9654C41.4265 69.3047 41.3492 69.5875 41.1944 69.8137C41.0396 70.0399 40.8342 70.2214 40.5783 70.3584C40.3282 70.4893 40.0544 70.5846 39.7567 70.6441C39.4651 70.6977 39.1793 70.7245 38.8995 70.7245C38.5364 70.7245 38.1941 70.6679 37.8726 70.5548C37.7417 70.5072 37.6137 70.4566 37.4887 70.403C37.3637 70.3435 37.2327 70.2959 37.0958 70.2601C37.072 70.0696 37.0303 69.8613 36.9708 69.6351C36.9172 69.4089 36.8904 69.2035 36.8904 69.019C36.8904 68.9356 36.9023 68.8731 36.9261 68.8314C36.9559 68.7838 37.0184 68.76 37.1136 68.76C37.197 68.76 37.2506 68.7808 37.2744 68.8225C37.2982 68.8582 37.316 68.9088 37.3279 68.9743C37.3518 69.0576 37.3726 69.141 37.3905 69.2243C37.4083 69.3017 37.4291 69.3821 37.453 69.4654C37.572 69.8226 37.7476 70.0726 37.9798 70.2155C38.2179 70.3584 38.5215 70.4298 38.8906 70.4298C39.1942 70.4298 39.4651 70.3881 39.7032 70.3048C39.9472 70.2155 40.1377 70.0726 40.2747 69.8762C40.4175 69.6797 40.489 69.4178 40.489 69.0904C40.489 68.8344 40.4026 68.6052 40.23 68.4028C40.0574 68.1945 39.8669 68.0308 39.6585 67.9117C39.6109 67.8819 39.5603 67.8552 39.5067 67.8313C39.4531 67.8075 39.3996 67.7837 39.346 67.7599C39.1615 67.6647 38.9739 67.5694 38.7834 67.4742C38.5989 67.3789 38.4114 67.2866 38.2209 67.1974C38.0363 67.1021 37.8459 66.983 37.6494 66.8402C37.4589 66.6914 37.2952 66.5217 37.1583 66.3312C37.0273 66.1407 36.9618 65.9324 36.9618 65.7061C36.9618 65.3252 37.063 65.0096 37.2654 64.7596C37.4678 64.5096 37.7268 64.3221 38.0423 64.1971C38.3578 64.0721 38.6852 64.0096 39.0245 64.0096C39.2686 64.0096 39.4859 64.0393 39.6764 64.0988C39.8728 64.1584 40.0663 64.2209 40.2568 64.2864C40.4473 64.3459 40.6556 64.3876 40.8819 64.4114C40.8997 64.59 40.9176 64.7686 40.9354 64.9471C40.9533 65.1257 40.9801 65.3043 41.0158 65.4829C41.0217 65.5067 41.0247 65.5305 41.0247 65.5543C41.0307 65.5782 41.0337 65.602 41.0337 65.6258C41.0337 65.721 41.0009 65.7835 40.9354 65.8133C40.8759 65.8371 40.8074 65.849 40.7301 65.849C40.6527 65.849 40.611 65.8341 40.605 65.8044C40.5991 65.7746 40.5902 65.73 40.5783 65.6704C40.5009 65.1942 40.3372 64.837 40.0871 64.5989C39.8371 64.3548 39.4621 64.2328 38.962 64.2328C38.5929 64.2328 38.3042 64.331 38.0959 64.5275C37.8935 64.7239 37.7923 65.0096 37.7923 65.3847C37.7923 65.6347 37.8578 65.846 37.9887 66.0187C38.1197 66.1913 38.2923 66.3431 38.5066 66.4741C38.7269 66.5991 38.965 66.7181 39.221 66.8312C39.4829 66.9444 39.7419 67.0604 39.9978 67.1795C40.2538 67.2986 40.489 67.4384 40.7033 67.5992C40.9235 67.754 41.0991 67.9415 41.2301 68.1617C41.3611 68.382 41.4265 68.6499 41.4265 68.9654ZM45.0139 70.2334C45.0139 70.2869 44.9723 70.3405 44.8889 70.3941C44.8115 70.4477 44.7163 70.4953 44.6032 70.537C44.4901 70.5786 44.3799 70.6114 44.2728 70.6352C44.1716 70.659 44.0972 70.6709 44.0496 70.6709C43.74 70.6709 43.4989 70.6322 43.3263 70.5548C43.1596 70.4774 43.0405 70.3494 42.9691 70.1708C42.9036 69.9923 42.8709 69.7512 42.8709 69.4476C42.8709 68.9535 42.8709 68.4594 42.8709 67.9653C42.8768 67.4652 42.8828 66.9682 42.8887 66.4741H42.2458C42.2041 66.4741 42.1684 66.486 42.1387 66.5098C42.1149 66.5276 42.0881 66.5366 42.0583 66.5366C42.0285 66.5366 42.0137 66.5157 42.0137 66.4741C42.0137 66.4503 42.0285 66.4026 42.0583 66.3312C42.094 66.2598 42.1178 66.2121 42.1297 66.1883C42.1476 66.1943 42.1744 66.1973 42.2101 66.1973H42.9066L42.9155 65.0632C43.0524 64.9739 43.1775 64.8757 43.2906 64.7686C43.4037 64.6554 43.5168 64.5423 43.6299 64.4292C43.6418 64.4173 43.6537 64.4084 43.6656 64.4024C43.6775 64.3905 43.6894 64.3846 43.7013 64.3846C43.7549 64.3846 43.7817 64.4054 43.7817 64.4471L43.7281 66.1883C43.9186 66.1883 44.1061 66.1854 44.2907 66.1794C44.4811 66.1734 44.6687 66.1705 44.8532 66.1705C44.9306 66.1705 44.9693 66.2151 44.9693 66.3044C44.9693 66.4175 44.9187 66.4741 44.8175 66.4741H43.7281C43.7281 66.9265 43.7251 67.3819 43.7192 67.8403C43.7192 68.2927 43.7192 68.7481 43.7192 69.2065V69.894C43.7192 70.0429 43.7817 70.147 43.9067 70.2066C44.0317 70.2601 44.1537 70.2869 44.2728 70.2869C44.4395 70.2869 44.6032 70.2601 44.7639 70.2066C44.7818 70.1947 44.8086 70.1828 44.8443 70.1708C44.88 70.1589 44.9068 70.153 44.9246 70.153C44.9842 70.153 45.0139 70.1798 45.0139 70.2334ZM48.7292 67.5099C48.7232 67.2658 48.7024 67.0336 48.6667 66.8134C48.631 66.5872 48.5447 66.4026 48.4077 66.2598C48.2708 66.1109 48.0476 66.0365 47.738 66.0365C47.4582 66.0365 47.2291 66.1139 47.0505 66.2687C46.8778 66.4175 46.7439 66.608 46.6486 66.8402C46.5534 67.0664 46.482 67.2986 46.4343 67.5367C46.5832 67.5426 46.729 67.5486 46.8719 67.5545C47.0148 67.5545 47.1576 67.5545 47.3005 67.5545C47.5386 67.5545 47.7767 67.5516 48.0148 67.5456C48.253 67.5337 48.4911 67.5218 48.7292 67.5099ZM49.7561 69.5547C49.7561 69.5845 49.7501 69.6023 49.7382 69.6083C49.7204 69.6678 49.6757 69.7393 49.6043 69.8226C49.5388 69.9059 49.4644 69.9863 49.381 70.0637C49.2977 70.1351 49.2292 70.1887 49.1757 70.2244C48.9792 70.3613 48.756 70.4715 48.506 70.5548C48.2619 70.6382 48.0178 70.6798 47.7738 70.6798C47.5714 70.6798 47.3451 70.6471 47.0951 70.5816C46.851 70.5161 46.6427 70.4268 46.4701 70.3137C46.1367 70.0935 45.8926 69.8047 45.7378 69.4476C45.5831 69.0904 45.5057 68.7183 45.5057 68.3314C45.5057 67.8909 45.592 67.4831 45.7646 67.1081C45.9373 66.733 46.2141 66.4294 46.5951 66.1973C46.7677 66.0961 46.9612 66.0127 47.1755 65.9472C47.3898 65.8758 47.5952 65.8401 47.7916 65.8401C48.1428 65.8401 48.4524 65.9115 48.7203 66.0544C48.9882 66.1973 49.1965 66.3997 49.3453 66.6616C49.5001 66.9176 49.5775 67.2241 49.5775 67.5813C49.5775 67.6825 49.5537 67.748 49.5061 67.7778C49.4644 67.8075 49.3989 67.8224 49.3096 67.8224C49.1906 67.8224 49.0715 67.8194 48.9524 67.8135C48.8334 67.8075 48.7143 67.8016 48.5953 67.7956C48.4286 67.7837 48.2619 67.7778 48.0952 67.7778C47.9345 67.7778 47.7708 67.7778 47.6041 67.7778C47.4017 67.7778 47.1993 67.7778 46.9969 67.7778C46.7945 67.7778 46.5921 67.7837 46.3897 67.7956C46.3837 67.8909 46.3778 67.9831 46.3718 68.0724C46.3659 68.1617 46.3629 68.254 46.3629 68.3492C46.3629 68.5695 46.3897 68.7987 46.4433 69.0368C46.4968 69.269 46.5832 69.4863 46.7022 69.6887C46.8213 69.8851 46.9731 70.0458 47.1576 70.1708C47.3422 70.2899 47.5654 70.3494 47.8273 70.3494C48.0952 70.3494 48.3512 70.3078 48.5953 70.2244C48.8393 70.1411 49.0626 70.0071 49.265 69.8226C49.3185 69.769 49.3662 69.7125 49.4078 69.6529C49.4555 69.5875 49.5061 69.5309 49.5596 69.4833C49.5894 69.4535 49.6221 69.4386 49.6579 69.4386C49.6876 69.4386 49.7114 69.4505 49.7293 69.4744C49.7472 69.4982 49.7561 69.525 49.7561 69.5547ZM53.1843 69.5994C53.1605 69.3315 53.1456 69.0636 53.1396 68.7957C53.1396 68.5219 53.1367 68.248 53.1307 67.9742H53.0057C52.8211 67.9742 52.6158 68.004 52.3896 68.0635C52.1693 68.1171 51.958 68.2004 51.7556 68.3135C51.5532 68.4266 51.3865 68.5695 51.2555 68.7421C51.1305 68.9088 51.068 69.1023 51.068 69.3226C51.068 69.6083 51.1484 69.8256 51.3091 69.9744C51.4698 70.1173 51.6871 70.1887 51.9609 70.1887C52.0919 70.1887 52.2348 70.1589 52.3896 70.0994C52.5443 70.0339 52.6932 69.9565 52.836 69.8672C52.9789 69.778 53.095 69.6887 53.1843 69.5994ZM54.7469 70.1708C54.7469 70.1947 54.7439 70.2125 54.738 70.2244C54.6785 70.3554 54.5773 70.4566 54.4344 70.528C54.2975 70.5935 54.1606 70.6262 54.0236 70.6262C53.7736 70.6262 53.5921 70.5548 53.4789 70.4119C53.3718 70.2631 53.2855 70.0816 53.22 69.8672C52.9938 70.0756 52.7438 70.2512 52.4699 70.3941C52.1961 70.531 51.9014 70.5995 51.5859 70.5995C51.3657 70.5995 51.1573 70.5578 50.9609 70.4744C50.7704 70.3852 50.6156 70.2572 50.4965 70.0905C50.3775 69.9238 50.3179 69.7214 50.3179 69.4833C50.3179 69.2333 50.3804 69.019 50.5055 68.8404C50.6364 68.6558 50.8001 68.501 50.9966 68.376C51.199 68.2451 51.4133 68.1409 51.6395 68.0635C51.8717 67.9802 52.0889 67.9177 52.2913 67.876C52.4283 67.8462 52.5681 67.8194 52.711 67.7956C52.8539 67.7718 52.9938 67.748 53.1307 67.7242C53.1307 67.5575 53.1218 67.364 53.1039 67.1438C53.092 66.9235 53.0474 66.742 52.97 66.5991C52.8926 66.4622 52.7884 66.3401 52.6574 66.233C52.5265 66.1258 52.3806 66.0722 52.2199 66.0722C51.9461 66.0722 51.7318 66.1437 51.577 66.2866C51.4222 66.4294 51.3121 66.6318 51.2466 66.8938C51.2406 66.9235 51.2347 66.9563 51.2287 66.992C51.2287 67.0217 51.2258 67.0515 51.2198 67.0813C51.2139 67.117 51.19 67.1497 51.1484 67.1795C51.1127 67.2033 51.074 67.2152 51.0323 67.2152C50.9192 67.2152 50.815 67.1884 50.7198 67.1348C50.6305 67.0813 50.5858 66.992 50.5858 66.867C50.5858 66.7955 50.5977 66.733 50.6215 66.6794C50.6989 66.4949 50.8239 66.3431 50.9966 66.224C51.1692 66.099 51.3597 66.0038 51.5681 65.9383C51.7824 65.8728 51.9818 65.8401 52.1663 65.8401C52.4878 65.8401 52.7795 65.8996 53.0414 66.0187C53.3033 66.1377 53.5117 66.3133 53.6665 66.5455C53.8272 66.7717 53.9076 67.0575 53.9076 67.4027C53.9076 67.7897 53.9046 68.1796 53.8986 68.5725C53.8986 68.9654 53.9105 69.3583 53.9343 69.7512C53.9403 69.8821 53.9671 69.9982 54.0147 70.0994C54.0623 70.1947 54.1606 70.2423 54.3094 70.2423C54.3868 70.2423 54.4671 70.2244 54.5505 70.1887C54.6398 70.147 54.6963 70.1262 54.7201 70.1262C54.738 70.1262 54.7469 70.1411 54.7469 70.1708ZM62.9436 70.528C62.9436 70.6114 62.9109 70.653 62.8454 70.653C62.6787 70.653 62.5091 70.6471 62.3364 70.6352C62.1638 70.6233 61.9912 70.6173 61.8185 70.6173C61.6459 70.6173 61.4703 70.6233 61.2917 70.6352C61.1191 70.6471 60.9464 70.653 60.7738 70.653C60.75 70.653 60.7321 70.6382 60.7202 70.6084C60.7143 70.5786 60.7113 70.5548 60.7113 70.537C60.7113 70.4834 60.7381 70.4506 60.7916 70.4387C60.8512 70.4268 60.9137 70.4238 60.9792 70.4298C61.0506 70.4358 61.1042 70.4387 61.1399 70.4387C61.2232 70.4387 61.2917 70.4179 61.3453 70.3762C61.3988 70.3346 61.4256 70.272 61.4256 70.1887C61.4256 69.7899 61.4286 69.394 61.4346 69.0011C61.4465 68.6082 61.4524 68.2153 61.4524 67.8224C61.4524 67.7569 61.4524 67.6914 61.4524 67.626C61.4524 67.5605 61.4494 67.495 61.4435 67.4295C61.4375 67.2866 61.4286 67.1408 61.4167 66.992C61.4108 66.8372 61.3869 66.6943 61.3453 66.5634C61.3036 66.4264 61.2322 66.3163 61.131 66.233C61.0298 66.1496 60.8839 66.108 60.6934 66.108C60.5565 66.108 60.4047 66.1496 60.238 66.233C60.0773 66.3104 59.9225 66.4026 59.7737 66.5098C59.6249 66.6169 59.4999 66.7181 59.3987 66.8134C59.4106 66.8967 59.4165 66.983 59.4165 67.0723C59.4165 67.1557 59.4165 67.239 59.4165 67.3224C59.4165 67.495 59.4165 67.6706 59.4165 67.8492C59.4225 68.0218 59.4254 68.1945 59.4254 68.3671C59.4254 68.6707 59.4225 68.9743 59.4165 69.2779C59.4165 69.5815 59.4165 69.8851 59.4165 70.1887C59.4165 70.278 59.4552 70.3405 59.5326 70.3762C59.61 70.4119 59.6874 70.4298 59.7648 70.4298C59.8124 70.4298 59.86 70.4268 59.9076 70.4209C59.9612 70.4149 60.0088 70.4119 60.0505 70.4119C60.0803 70.4119 60.0981 70.4268 60.1041 70.4566C60.116 70.4864 60.1219 70.5102 60.1219 70.528C60.1219 70.5578 60.113 70.5876 60.0952 70.6173C60.0773 70.6411 60.0505 70.653 60.0148 70.653C59.8481 70.653 59.6784 70.6471 59.5058 70.6352C59.3391 70.6233 59.1695 70.6173 58.9968 70.6173C58.8302 70.6173 58.6605 70.6233 58.4879 70.6352C58.3152 70.6471 58.1426 70.653 57.97 70.653C57.9461 70.653 57.9283 70.6382 57.9164 70.6084C57.9045 70.5786 57.8985 70.5548 57.8985 70.537C57.8985 70.4893 57.9223 70.4566 57.97 70.4387C58.0176 70.4268 58.0741 70.4238 58.1396 70.4298C58.211 70.4358 58.2706 70.4387 58.3182 70.4387C58.4015 70.4387 58.47 70.4209 58.5236 70.3852C58.5831 70.3435 58.6129 70.278 58.6129 70.1887V67.9117C58.6129 67.7867 58.6099 67.6319 58.6039 67.4474C58.6039 67.2628 58.592 67.0813 58.5682 66.9027C58.5504 66.7181 58.5176 66.5723 58.47 66.4651C58.4283 66.358 58.3569 66.2746 58.2557 66.2151C58.1604 66.1556 58.0533 66.1258 57.9342 66.1258C57.7795 66.1258 57.6217 66.1645 57.461 66.2419C57.3002 66.3193 57.1484 66.4145 57.0056 66.5276C56.8627 66.6408 56.7407 66.7539 56.6395 66.867V70.1798C56.6395 70.2691 56.6722 70.3346 56.7377 70.3762C56.8032 70.4119 56.8746 70.4298 56.952 70.4298C56.9996 70.4298 57.0472 70.4268 57.0949 70.4209C57.1425 70.409 57.1871 70.403 57.2288 70.403C57.2526 70.403 57.2675 70.4209 57.2735 70.4566C57.2794 70.4864 57.2824 70.5072 57.2824 70.5191C57.2824 70.5489 57.2735 70.5786 57.2556 70.6084C57.2437 70.6322 57.2199 70.6441 57.1842 70.6441C57.0711 70.6441 56.958 70.6411 56.8448 70.6352C56.7317 70.6233 56.6186 70.6173 56.5055 70.6173C56.2793 70.6173 56.0531 70.6233 55.8269 70.6352C55.6007 70.6411 55.3745 70.6441 55.1483 70.6441C55.1244 70.6441 55.1066 70.6292 55.0947 70.5995C55.0828 70.5697 55.0768 70.5459 55.0768 70.528C55.0768 70.4566 55.1066 70.4209 55.1661 70.4209C55.2316 70.4209 55.2941 70.4238 55.3536 70.4298C55.4132 70.4298 55.4727 70.4298 55.5322 70.4298C55.6156 70.4298 55.687 70.4119 55.7465 70.3762C55.8061 70.3346 55.8358 70.2691 55.8358 70.1798C55.8358 69.5785 55.8328 68.9773 55.8269 68.376C55.8269 67.7688 55.8269 67.1646 55.8269 66.5634C55.8269 66.4979 55.8209 66.4324 55.809 66.3669C55.7971 66.3014 55.7584 66.2568 55.693 66.233C55.6513 66.2151 55.6066 66.2062 55.559 66.2062C55.4816 66.2062 55.4042 66.2181 55.3268 66.2419C55.2495 66.2598 55.1691 66.2687 55.0858 66.2687C55.0322 66.2687 55.0054 66.233 55.0054 66.1615C55.0054 66.1139 55.0232 66.0842 55.059 66.0722C55.0887 66.0603 55.1215 66.0544 55.1572 66.0544C55.1989 66.0484 55.2376 66.0425 55.2733 66.0365C55.4102 66.0187 55.5471 65.9978 55.684 65.974C55.8269 65.9443 55.9638 65.9145 56.0948 65.8847C56.1424 65.8728 56.193 65.8609 56.2466 65.849C56.3002 65.8371 56.3537 65.8312 56.4073 65.8312C56.4787 65.8312 56.5264 65.8847 56.5502 65.9919C56.5799 66.0931 56.5948 66.2032 56.5948 66.3223C56.6008 66.4413 56.6038 66.5276 56.6038 66.5812C56.7288 66.4741 56.8687 66.3639 57.0234 66.2508C57.1782 66.1318 57.3419 66.0306 57.5146 65.9472C57.6872 65.8639 57.8598 65.8222 58.0325 65.8222C58.3361 65.8222 58.592 65.8728 58.8004 65.974C59.0087 66.0752 59.1873 66.2657 59.3362 66.5455C59.4671 66.4324 59.6159 66.3193 59.7826 66.2062C59.9493 66.0871 60.1219 65.9889 60.3005 65.9115C60.4851 65.8282 60.6666 65.7865 60.8452 65.7865C61.2381 65.7865 61.5358 65.8431 61.7382 65.9562C61.9465 66.0693 62.0864 66.2449 62.1578 66.483C62.2352 66.7152 62.2739 67.0158 62.2739 67.3849C62.2739 67.8492 62.271 68.3165 62.265 68.7868C62.259 69.2511 62.2561 69.7184 62.2561 70.1887C62.2561 70.278 62.2948 70.3405 62.3722 70.3762C62.4555 70.4119 62.5359 70.4298 62.6132 70.4298C62.6609 70.4298 62.7055 70.4268 62.7472 70.4209C62.7948 70.4149 62.8395 70.4119 62.8811 70.4119C62.9049 70.4119 62.9198 70.4268 62.9258 70.4566C62.9377 70.4864 62.9436 70.5102 62.9436 70.528ZM66.6665 67.5099C66.6606 67.2658 66.6397 67.0336 66.604 66.8134C66.5683 66.5872 66.482 66.4026 66.345 66.2598C66.2081 66.1109 65.9849 66.0365 65.6753 66.0365C65.3956 66.0365 65.1664 66.1139 64.9878 66.2687C64.8151 66.4175 64.6812 66.608 64.586 66.8402C64.4907 67.0664 64.4193 67.2986 64.3716 67.5367C64.5205 67.5426 64.6663 67.5486 64.8092 67.5545C64.9521 67.5545 65.0949 67.5545 65.2378 67.5545C65.4759 67.5545 65.714 67.5516 65.9522 67.5456C66.1903 67.5337 66.4284 67.5218 66.6665 67.5099ZM67.6934 69.5547C67.6934 69.5845 67.6874 69.6023 67.6755 69.6083C67.6577 69.6678 67.613 69.7393 67.5416 69.8226C67.4761 69.9059 67.4017 69.9863 67.3184 70.0637C67.235 70.1351 67.1666 70.1887 67.113 70.2244C66.9165 70.3613 66.6933 70.4715 66.4433 70.5548C66.1992 70.6382 65.9551 70.6798 65.7111 70.6798C65.5087 70.6798 65.2824 70.6471 65.0324 70.5816C64.7884 70.5161 64.58 70.4268 64.4074 70.3137C64.074 70.0935 63.8299 69.8047 63.6752 69.4476C63.5204 69.0904 63.443 68.7183 63.443 68.3314C63.443 67.8909 63.5293 67.4831 63.7019 67.1081C63.8746 66.733 64.1514 66.4294 64.5324 66.1973C64.705 66.0961 64.8985 66.0127 65.1128 65.9472C65.3271 65.8758 65.5325 65.8401 65.7289 65.8401C66.0801 65.8401 66.3897 65.9115 66.6576 66.0544C66.9255 66.1973 67.1338 66.3997 67.2826 66.6616C67.4374 66.9176 67.5148 67.2241 67.5148 67.5813C67.5148 67.6825 67.491 67.748 67.4434 67.7778C67.4017 67.8075 67.3362 67.8224 67.2469 67.8224C67.1279 67.8224 67.0088 67.8194 66.8897 67.8135C66.7707 67.8075 66.6516 67.8016 66.5326 67.7956C66.3659 67.7837 66.1992 67.7778 66.0325 67.7778C65.8718 67.7778 65.7081 67.7778 65.5414 67.7778C65.339 67.7778 65.1366 67.7778 64.9342 67.7778C64.7318 67.7778 64.5294 67.7837 64.327 67.7956C64.321 67.8909 64.3151 67.9831 64.3091 68.0724C64.3032 68.1617 64.3002 68.254 64.3002 68.3492C64.3002 68.5695 64.327 68.7987 64.3806 69.0368C64.4342 69.269 64.5205 69.4863 64.6395 69.6887C64.7586 69.8851 64.9104 70.0458 65.0949 70.1708C65.2795 70.2899 65.5027 70.3494 65.7646 70.3494C66.0325 70.3494 66.2885 70.3078 66.5326 70.2244C66.7766 70.1411 66.9999 70.0071 67.2023 69.8226C67.2558 69.769 67.3035 69.7125 67.3451 69.6529C67.3928 69.5875 67.4434 69.5309 67.4969 69.4833C67.5267 69.4535 67.5594 69.4386 67.5952 69.4386C67.6249 69.4386 67.6487 69.4505 67.6666 69.4744C67.6845 69.4982 67.6934 69.525 67.6934 69.5547ZM71.5859 67.367C71.5859 67.1646 71.5442 66.9741 71.4609 66.7955C71.3776 66.6169 71.2585 66.4711 71.1037 66.358C70.9489 66.2449 70.7614 66.1883 70.5412 66.1883C70.2554 66.1883 70.0203 66.2568 69.8357 66.3937C69.6572 66.5306 69.5143 66.7092 69.4071 66.9295C69.3059 67.1438 69.2345 67.3759 69.1928 67.626C69.1571 67.876 69.1393 68.1141 69.1393 68.3403C69.1393 68.5427 69.1571 68.76 69.1928 68.9922C69.2285 69.2243 69.2911 69.4416 69.3803 69.644C69.4756 69.8464 69.6066 70.0131 69.7732 70.1441C69.9399 70.2691 70.1513 70.3316 70.4072 70.3316C70.6215 70.3316 70.818 70.2661 70.9966 70.1351C71.1752 69.9982 71.318 69.8286 71.4252 69.6262C71.5323 69.4238 71.5859 69.2243 71.5859 69.0279V67.367ZM73.2468 70.2869C73.2468 70.3167 73.2319 70.3465 73.2021 70.3762C73.1724 70.406 73.1456 70.4298 73.1218 70.4477C73.0444 70.5072 72.9313 70.5578 72.7825 70.5995C72.6396 70.6411 72.5175 70.662 72.4163 70.662C72.2616 70.662 72.1336 70.6173 72.0324 70.528C71.9312 70.4387 71.8478 70.3286 71.7824 70.1976C71.7228 70.0667 71.6693 69.9387 71.6216 69.8137C71.4907 70.022 71.3121 70.2095 71.0859 70.3762C70.8597 70.537 70.6186 70.6173 70.3626 70.6173C70.1899 70.6173 70.0114 70.6054 69.8268 70.5816C69.6482 70.5518 69.4815 70.4893 69.3268 70.3941C68.9875 70.1798 68.7285 69.8911 68.5499 69.5279C68.3773 69.1588 68.291 68.7808 68.291 68.3939C68.291 67.9296 68.3743 67.5129 68.541 67.1438C68.7077 66.7687 68.9547 66.4741 69.2821 66.2598C69.6155 66.0395 70.0262 65.9294 70.5144 65.9294C70.6215 65.9294 70.7406 65.9502 70.8716 65.9919C71.0025 66.0336 71.1305 66.0871 71.2555 66.1526C71.3865 66.2121 71.4907 66.2746 71.5681 66.3401V64.6078C71.5681 64.4173 71.5175 64.3102 71.4163 64.2864C71.321 64.2566 71.193 64.2417 71.0323 64.2417C70.9787 64.2417 70.9251 64.2447 70.8716 64.2506C70.818 64.2506 70.7644 64.2506 70.7108 64.2506C70.687 64.2506 70.6632 64.2417 70.6394 64.2239C70.6215 64.206 70.6126 64.1852 70.6126 64.1614C70.6126 64.1197 70.6275 64.0929 70.6573 64.081C70.6692 64.0691 70.6811 64.0631 70.693 64.0631C70.7108 64.0631 70.7287 64.0602 70.7465 64.0542C70.8716 64.0304 70.9966 64.0125 71.1216 64.0006C71.2525 63.9828 71.3835 63.9619 71.5145 63.9381C71.6454 63.9143 71.7734 63.8905 71.8984 63.8667C72.0235 63.8369 72.1485 63.8042 72.2735 63.7685C72.2794 63.7685 72.2884 63.7655 72.3003 63.7595C72.3181 63.7536 72.33 63.7506 72.336 63.7506C72.3657 63.7506 72.3836 63.7625 72.3896 63.7863C72.3955 63.8101 72.3985 63.8339 72.3985 63.8578C72.3985 64.5959 72.3955 65.3311 72.3896 66.0633C72.3836 66.7955 72.3806 67.5307 72.3806 68.2689V69.5994C72.3806 69.7006 72.3925 69.8047 72.4163 69.9119C72.4402 70.019 72.4848 70.1083 72.5503 70.1798C72.6217 70.2512 72.7199 70.2869 72.845 70.2869C72.9045 70.2869 72.961 70.275 73.0146 70.2512C73.0682 70.2274 73.1247 70.2155 73.1843 70.2155C73.2259 70.2155 73.2468 70.2393 73.2468 70.2869ZM83.8768 70.5191C83.8768 70.5965 83.841 70.6352 83.7696 70.6352C83.5493 70.6352 83.3321 70.6292 83.1178 70.6173C82.9035 70.6054 82.6891 70.5995 82.4748 70.5995C82.3736 70.5995 82.2724 70.6024 82.1712 70.6084C82.07 70.6084 81.9688 70.6114 81.8676 70.6173C81.7664 70.6233 81.6652 70.6322 81.564 70.6441C81.4688 70.6501 81.3706 70.653 81.2694 70.653C81.2158 70.653 81.1801 70.6382 81.1622 70.6084C81.1503 70.5727 81.1444 70.534 81.1444 70.4923C81.1444 70.4685 81.1503 70.4447 81.1622 70.4209C81.1741 70.3911 81.195 70.3762 81.2247 70.3762C81.2426 70.3703 81.2694 70.3673 81.3051 70.3673C81.3468 70.3673 81.3884 70.3703 81.4301 70.3762C81.4777 70.3762 81.5224 70.3762 81.564 70.3762C81.6474 70.3762 81.7397 70.3673 81.8409 70.3494C81.948 70.3316 82.0075 70.2661 82.0194 70.153C82.0254 70.1351 82.0254 70.1173 82.0194 70.0994C82.0194 70.0816 82.0194 70.0637 82.0194 70.0458V64.5721H81.9659C81.7397 65.1853 81.5045 65.7954 81.2604 66.4026C81.0164 67.0039 80.7723 67.6051 80.5282 68.2064C80.433 68.4504 80.3348 68.6945 80.2336 68.9386C80.1324 69.1827 80.0312 69.4267 79.93 69.6708C79.8883 69.778 79.8466 69.8881 79.8049 70.0012C79.7692 70.1143 79.7246 70.2214 79.671 70.3226C79.6293 70.3881 79.5639 70.4209 79.4746 70.4209C79.3912 70.4209 79.3287 70.3881 79.287 70.3226C79.2394 70.2334 79.1948 70.1381 79.1531 70.0369C79.1174 69.9357 79.0787 69.8375 79.037 69.7422C78.9477 69.5339 78.8614 69.3285 78.7781 69.1261C78.6947 68.9237 78.6114 68.7213 78.528 68.5189C78.2542 67.8641 77.9804 67.2122 77.7065 66.5634C77.4387 65.9085 77.1708 65.2567 76.9029 64.6078C76.9029 65.5305 76.9029 66.4562 76.9029 67.3849C76.9088 68.3076 76.9118 69.2303 76.9118 70.153C76.9118 70.272 76.9624 70.3405 77.0636 70.3584C77.1708 70.3762 77.269 70.3852 77.3583 70.3852C77.4178 70.3852 77.4773 70.3822 77.5369 70.3762C77.5964 70.3703 77.6559 70.3673 77.7155 70.3673C77.7452 70.3673 77.7601 70.3852 77.7601 70.4209C77.7601 70.4506 77.7571 70.4923 77.7512 70.5459C77.7452 70.5995 77.7214 70.6262 77.6797 70.6262C77.519 70.6262 77.3553 70.6233 77.1886 70.6173C77.0279 70.6054 76.8672 70.5995 76.7064 70.5995C76.5517 70.5995 76.3939 70.6054 76.2332 70.6173C76.0784 70.6233 75.9236 70.6262 75.7689 70.6262C75.7629 70.6143 75.7569 70.6054 75.751 70.5995C75.751 70.5876 75.748 70.5786 75.7421 70.5727V70.4923C75.7421 70.4328 75.754 70.4 75.7778 70.3941C75.8016 70.3881 75.8343 70.3852 75.876 70.3852C75.9236 70.3852 75.9683 70.3881 76.0099 70.3941C76.0516 70.3941 76.0933 70.3941 76.135 70.3941C76.2243 70.3941 76.3195 70.3822 76.4207 70.3584C76.5219 70.3346 76.5755 70.2661 76.5814 70.153C76.5933 70.0577 76.5963 69.9625 76.5904 69.8672C76.5904 69.766 76.5904 69.6678 76.5904 69.5726C76.5904 69.3821 76.5874 69.1916 76.5814 69.0011C76.5814 68.8046 76.5814 68.6112 76.5814 68.4207C76.5814 67.7837 76.5844 67.1497 76.5904 66.5187C76.6023 65.8877 76.6082 65.2567 76.6082 64.6257C76.6082 64.5126 76.5546 64.4382 76.4475 64.4024C76.3403 64.3667 76.2421 64.3489 76.1528 64.3489C76.0992 64.3489 76.0457 64.3518 75.9921 64.3578C75.9385 64.3638 75.8849 64.3667 75.8314 64.3667C75.7956 64.3667 75.7718 64.3489 75.7599 64.3132C75.748 64.2774 75.7421 64.2477 75.7421 64.2239C75.7421 64.1405 75.7748 64.0988 75.8403 64.0988C75.9951 64.0988 76.1528 64.1048 76.3135 64.1167C76.4743 64.1227 76.632 64.1256 76.7868 64.1256C77.0904 64.1256 77.394 64.1167 77.6976 64.0988L79.8139 69.1886C80.1413 68.3373 80.4836 67.495 80.8408 66.6616C81.1979 65.8222 81.5283 64.9739 81.8319 64.1167C81.9807 64.1227 82.1266 64.1286 82.2695 64.1346C82.4183 64.1346 82.5671 64.1346 82.7159 64.1346C82.8945 64.1346 83.0701 64.1286 83.2428 64.1167C83.4214 64.0988 83.5999 64.0899 83.7785 64.0899C83.8143 64.0899 83.8351 64.1078 83.841 64.1435C83.847 64.1792 83.85 64.209 83.85 64.2328C83.85 64.2566 83.847 64.2864 83.841 64.3221C83.8351 64.3578 83.8143 64.3757 83.7785 64.3757C83.7011 64.3757 83.6267 64.3727 83.5553 64.3667C83.4839 64.3608 83.4124 64.3578 83.341 64.3578C83.2696 64.3578 83.1803 64.3757 83.0731 64.4114C82.9719 64.4411 82.9213 64.5007 82.9213 64.59V70.0816C82.9213 70.2185 82.96 70.3048 83.0374 70.3405C83.1207 70.3703 83.2249 70.3852 83.3499 70.3852C83.4214 70.3852 83.4928 70.3822 83.5642 70.3762C83.6357 70.3703 83.7101 70.3673 83.7875 70.3673C83.8351 70.3673 83.8619 70.3852 83.8678 70.4209C83.8738 70.4566 83.8768 70.4893 83.8768 70.5191ZM86.8258 70.5102C86.8258 70.5399 86.8169 70.5697 86.799 70.5995C86.7812 70.6233 86.7574 70.6352 86.7276 70.6352C86.5609 70.6352 86.3942 70.6322 86.2276 70.6262C86.0668 70.6143 85.9002 70.6084 85.7275 70.6084H85.4864C85.3078 70.6084 85.1292 70.6143 84.9507 70.6262C84.778 70.6322 84.6054 70.6352 84.4328 70.6352C84.4089 70.6352 84.3911 70.6203 84.3792 70.5905C84.3732 70.5608 84.3702 70.537 84.3702 70.5191C84.3702 70.4893 84.3732 70.4685 84.3792 70.4566C84.3851 70.4387 84.403 70.4268 84.4328 70.4209C84.4625 70.409 84.4953 70.406 84.531 70.4119C84.5726 70.4119 84.6113 70.4119 84.6471 70.4119C84.6887 70.4119 84.7274 70.4149 84.7631 70.4209C84.7989 70.4209 84.8376 70.4209 84.8792 70.4209C84.9626 70.4209 85.037 70.403 85.1025 70.3673C85.1739 70.3256 85.2096 70.2572 85.2096 70.1619V66.5902C85.2096 66.489 85.1918 66.4116 85.156 66.358C85.1203 66.2985 85.0459 66.2687 84.9328 66.2687C84.8495 66.2687 84.7631 66.2746 84.6738 66.2866C84.5905 66.2925 84.5072 66.3014 84.4238 66.3133C84.3762 66.3133 84.3524 66.2866 84.3524 66.233C84.3524 66.1734 84.3762 66.1348 84.4238 66.1169C84.4953 66.0931 84.5697 66.0782 84.6471 66.0722C84.7304 66.0603 84.8078 66.0484 84.8792 66.0365C85.0459 66.0068 85.2126 65.974 85.3793 65.9383C85.546 65.9026 85.7097 65.8639 85.8704 65.8222C85.8882 65.8163 85.9121 65.8133 85.9418 65.8133C86.0073 65.8133 86.04 65.849 86.04 65.9204C86.04 66.6229 86.0371 67.3283 86.0311 68.0367C86.0311 68.7451 86.0311 69.4535 86.0311 70.1619C86.0311 70.2572 86.0728 70.3256 86.1561 70.3673C86.2454 70.403 86.3288 70.4209 86.4062 70.4209C86.4657 70.4209 86.5252 70.4179 86.5847 70.4119C86.6502 70.406 86.7127 70.403 86.7723 70.403C86.7961 70.403 86.811 70.4179 86.8169 70.4477C86.8229 70.4774 86.8258 70.4983 86.8258 70.5102ZM86.1026 64.331C86.1026 64.4798 86.049 64.6078 85.9418 64.715C85.8347 64.8162 85.7067 64.8668 85.5579 64.8668C85.409 64.8668 85.281 64.8162 85.1739 64.715C85.0667 64.6078 85.0132 64.4798 85.0132 64.331C85.0132 64.1822 85.0667 64.0572 85.1739 63.956C85.281 63.8488 85.409 63.7952 85.5579 63.7952C85.7067 63.7952 85.8347 63.8488 85.9418 63.956C86.049 64.0572 86.1026 64.1822 86.1026 64.331ZM89.8775 70.528C89.8775 70.5578 89.8685 70.5876 89.8507 70.6173C89.8388 70.6411 89.815 70.653 89.7792 70.653C89.5947 70.653 89.4072 70.6501 89.2167 70.6441C89.0262 70.6322 88.8357 70.6262 88.6452 70.6262H88.3327C88.2077 70.6262 88.0827 70.6322 87.9576 70.6441C87.8326 70.6501 87.7076 70.653 87.5826 70.653C87.5588 70.653 87.5409 70.6441 87.529 70.6262C87.5231 70.6024 87.5201 70.5816 87.5201 70.5637C87.5201 70.5459 87.5201 70.528 87.5201 70.5102C87.5201 70.4923 87.5231 70.4744 87.529 70.4566C87.5409 70.4328 87.5737 70.4209 87.6273 70.4209C87.6868 70.4149 87.7463 70.4149 87.8058 70.4209C87.8713 70.4209 87.913 70.4209 87.9309 70.4209C88.0142 70.4209 88.0886 70.403 88.1541 70.3673C88.2196 70.3256 88.2523 70.2572 88.2523 70.1619C88.2523 69.7035 88.2553 69.2481 88.2612 68.7957C88.2672 68.3373 88.2702 67.8819 88.2702 67.4295C88.2702 66.9652 88.2672 66.5009 88.2612 66.0365C88.2612 65.5662 88.2612 65.0989 88.2612 64.6346C88.2612 64.5929 88.2583 64.5483 88.2523 64.5007C88.2464 64.4471 88.2285 64.4054 88.1987 64.3757C88.1749 64.3459 88.1511 64.331 88.1273 64.331C88.1035 64.3251 88.0737 64.3221 88.038 64.3221C87.9309 64.3221 87.8237 64.3399 87.7165 64.3757C87.6153 64.4114 87.5141 64.4292 87.4129 64.4292C87.3475 64.4292 87.3147 64.3905 87.3147 64.3132C87.3147 64.2655 87.3504 64.2328 87.4219 64.2149C87.4993 64.1971 87.5588 64.1852 87.6005 64.1792C87.8088 64.1316 88.035 64.078 88.2791 64.0185C88.5232 63.959 88.7434 63.8905 88.9399 63.8131C88.9518 63.8131 88.9637 63.8101 88.9756 63.8042C88.9875 63.7982 88.9964 63.7952 89.0024 63.7952C89.0381 63.7952 89.0589 63.8072 89.0649 63.831C89.0768 63.8548 89.0827 63.8816 89.0827 63.9113C89.0827 64.078 89.0798 64.2447 89.0738 64.4114C89.0738 64.5721 89.0738 64.7358 89.0738 64.9025V67.4027C89.0738 67.8611 89.0768 68.3225 89.0827 68.7868C89.0887 69.2452 89.0917 69.7035 89.0917 70.1619C89.0917 70.2572 89.1304 70.3256 89.2078 70.3673C89.2911 70.403 89.3715 70.4209 89.4489 70.4209C89.5143 70.4209 89.5768 70.4179 89.6364 70.4119C89.6959 70.406 89.7554 70.403 89.815 70.403C89.8447 70.403 89.8626 70.4209 89.8685 70.4566C89.8745 70.4864 89.8775 70.5102 89.8775 70.528ZM95.4289 70.5102C95.4289 70.5518 95.3872 70.5816 95.3039 70.5995C95.2206 70.6173 95.1313 70.6292 95.036 70.6352C94.9467 70.6411 94.8842 70.6441 94.8485 70.6441C94.7652 70.6441 94.6729 70.6441 94.5717 70.6441C94.4705 70.6382 94.3782 70.6233 94.2949 70.5995C94.2175 70.5756 94.152 70.534 94.0984 70.4744C94.0508 70.4149 94.0091 70.3554 93.9734 70.2959C93.7055 69.8851 93.4406 69.4744 93.1787 69.0636C92.9168 68.6528 92.6578 68.2391 92.4018 67.8224L91.8839 68.2064V70.2066C91.8839 70.3494 91.9554 70.4209 92.0982 70.4209C92.1518 70.4209 92.2054 70.4209 92.259 70.4209C92.3125 70.4149 92.3631 70.4119 92.4108 70.4119C92.4405 70.4119 92.4703 70.4209 92.5001 70.4387C92.5358 70.4566 92.5536 70.4834 92.5536 70.5191C92.5536 70.5905 92.5209 70.6262 92.4554 70.6262C92.2887 70.6262 92.125 70.6262 91.9643 70.6262C91.8036 70.6203 91.6399 70.6173 91.4732 70.6173C91.3601 70.6173 91.241 70.6203 91.116 70.6262C90.9969 70.6262 90.8779 70.6292 90.7588 70.6352C90.7231 70.6352 90.6844 70.6382 90.6427 70.6441C90.607 70.6501 90.5683 70.653 90.5267 70.653C90.5029 70.653 90.482 70.6411 90.4642 70.6173C90.4523 70.5876 90.4463 70.5608 90.4463 70.537C90.4463 70.4953 90.4642 70.4685 90.4999 70.4566C90.5356 70.4447 90.5683 70.4387 90.5981 70.4387C90.6279 70.4387 90.6606 70.4417 90.6963 70.4477C90.732 70.4477 90.7648 70.4477 90.7945 70.4477C90.8898 70.4477 90.9642 70.4387 91.0178 70.4209C91.0714 70.3971 91.0981 70.3316 91.0981 70.2244V64.4739C91.0981 64.337 91.0743 64.2447 91.0267 64.1971C90.9791 64.1494 90.8838 64.1256 90.741 64.1256C90.6933 64.1256 90.6457 64.1316 90.5981 64.1435C90.5505 64.1494 90.5029 64.1524 90.4552 64.1524C90.3957 64.1524 90.3659 64.1227 90.3659 64.0631C90.3659 64.0215 90.3897 63.9947 90.4374 63.9828C90.5505 63.953 90.6666 63.9322 90.7856 63.9203C90.9106 63.9024 91.0297 63.8845 91.1428 63.8667C91.1964 63.8548 91.2708 63.8399 91.366 63.822C91.4613 63.7982 91.5535 63.7774 91.6428 63.7595C91.7381 63.7417 91.8036 63.7327 91.8393 63.7327C91.8691 63.7327 91.8839 63.7506 91.8839 63.7863L91.875 67.9385C92.1786 67.7123 92.4703 67.4742 92.7501 67.2241C93.0299 66.9741 93.3067 66.7211 93.5805 66.4651C93.6817 66.3758 93.777 66.2866 93.8663 66.1973C93.9556 66.102 94.0389 66.0038 94.1163 65.9026C94.152 65.8609 94.2026 65.8401 94.2681 65.8401C94.3276 65.8401 94.3842 65.8431 94.4377 65.849C94.4973 65.855 94.5568 65.8579 94.6163 65.8579C94.6878 65.8579 94.7592 65.855 94.8306 65.849C94.908 65.8431 94.9824 65.8401 95.0539 65.8401C95.1432 65.8401 95.1878 65.8877 95.1878 65.983C95.1878 66.0306 95.1521 66.0544 95.0807 66.0544C94.9854 66.0603 94.8931 66.0693 94.8039 66.0812C94.7146 66.0931 94.6282 66.1318 94.5449 66.1973C94.277 66.3878 94.0151 66.5902 93.7591 66.8045C93.5031 67.0188 93.2442 67.2301 92.9823 67.4384C93.0894 67.623 93.2025 67.8046 93.3216 67.9831C93.4406 68.1558 93.5567 68.3284 93.6698 68.501C93.8305 68.7392 93.9913 68.9773 94.152 69.2154C94.3187 69.4476 94.4854 69.6797 94.6521 69.9119C94.7354 70.025 94.8396 70.1381 94.9646 70.2512C95.0955 70.3584 95.2325 70.4179 95.3753 70.4298C95.4111 70.4358 95.4289 70.4625 95.4289 70.5102Z" fill="black"/>
    <circle cx="111.832" cy="67.7147" r="8.92941" fill="white"/>
    <path d="M136.543 70.5191C136.543 70.5965 136.507 70.6352 136.436 70.6352C136.216 70.6352 135.998 70.6292 135.784 70.6173C135.57 70.6054 135.355 70.5995 135.141 70.5995C135.04 70.5995 134.939 70.6024 134.837 70.6084C134.736 70.6084 134.635 70.6114 134.534 70.6173C134.433 70.6233 134.331 70.6322 134.23 70.6441C134.135 70.6501 134.037 70.653 133.936 70.653C133.882 70.653 133.846 70.6382 133.828 70.6084C133.817 70.5727 133.811 70.534 133.811 70.4923C133.811 70.4685 133.817 70.4447 133.828 70.4209C133.84 70.3911 133.861 70.3762 133.891 70.3762C133.909 70.3703 133.936 70.3673 133.971 70.3673C134.013 70.3673 134.055 70.3703 134.096 70.3762C134.144 70.3762 134.189 70.3762 134.23 70.3762C134.314 70.3762 134.406 70.3673 134.507 70.3494C134.614 70.3316 134.674 70.2661 134.686 70.153C134.692 70.1351 134.692 70.1173 134.686 70.0994C134.686 70.0816 134.686 70.0637 134.686 70.0458V64.5721H134.632C134.406 65.1853 134.171 65.7954 133.927 66.4026C133.683 67.0039 133.439 67.6051 133.194 68.2064C133.099 68.4504 133.001 68.6945 132.9 68.9386C132.799 69.1827 132.697 69.4267 132.596 69.6708C132.555 69.778 132.513 69.8881 132.471 70.0012C132.435 70.1143 132.391 70.2214 132.337 70.3226C132.296 70.3881 132.23 70.4209 132.141 70.4209C132.057 70.4209 131.995 70.3881 131.953 70.3226C131.906 70.2334 131.861 70.1381 131.819 70.0369C131.784 69.9357 131.745 69.8375 131.703 69.7422C131.614 69.5339 131.528 69.3285 131.444 69.1261C131.361 68.9237 131.278 68.7213 131.194 68.5189C130.92 67.8641 130.647 67.2122 130.373 66.5634C130.105 65.9085 129.837 65.2567 129.569 64.6078C129.569 65.5305 129.569 66.4562 129.569 67.3849C129.575 68.3076 129.578 69.2303 129.578 70.153C129.578 70.272 129.629 70.3405 129.73 70.3584C129.837 70.3762 129.935 70.3852 130.025 70.3852C130.084 70.3852 130.144 70.3822 130.203 70.3762C130.263 70.3703 130.322 70.3673 130.382 70.3673C130.411 70.3673 130.426 70.3852 130.426 70.4209C130.426 70.4506 130.423 70.4923 130.417 70.5459C130.411 70.5995 130.388 70.6262 130.346 70.6262C130.185 70.6262 130.022 70.6233 129.855 70.6173C129.694 70.6054 129.533 70.5995 129.373 70.5995C129.218 70.5995 129.06 70.6054 128.899 70.6173C128.745 70.6233 128.59 70.6262 128.435 70.6262C128.429 70.6143 128.423 70.6054 128.417 70.5995C128.417 70.5876 128.414 70.5786 128.408 70.5727V70.4923C128.408 70.4328 128.42 70.4 128.444 70.3941C128.468 70.3881 128.501 70.3852 128.542 70.3852C128.59 70.3852 128.635 70.3881 128.676 70.3941C128.718 70.3941 128.76 70.3941 128.801 70.3941C128.891 70.3941 128.986 70.3822 129.087 70.3584C129.188 70.3346 129.242 70.2661 129.248 70.153C129.26 70.0577 129.263 69.9625 129.257 69.8672C129.257 69.766 129.257 69.6678 129.257 69.5726C129.257 69.3821 129.254 69.1916 129.248 69.0011C129.248 68.8046 129.248 68.6112 129.248 68.4207C129.248 67.7837 129.251 67.1497 129.257 66.5187C129.269 65.8877 129.274 65.2567 129.274 64.6257C129.274 64.5126 129.221 64.4382 129.114 64.4024C129.007 64.3667 128.908 64.3489 128.819 64.3489C128.765 64.3489 128.712 64.3518 128.658 64.3578C128.605 64.3638 128.551 64.3667 128.498 64.3667C128.462 64.3667 128.438 64.3489 128.426 64.3132C128.414 64.2774 128.408 64.2477 128.408 64.2239C128.408 64.1405 128.441 64.0988 128.507 64.0988C128.661 64.0988 128.819 64.1048 128.98 64.1167C129.141 64.1227 129.298 64.1256 129.453 64.1256C129.757 64.1256 130.06 64.1167 130.364 64.0988L132.48 69.1886C132.808 68.3373 133.15 67.495 133.507 66.6616C133.864 65.8222 134.195 64.9739 134.498 64.1167C134.647 64.1227 134.793 64.1286 134.936 64.1346C135.085 64.1346 135.233 64.1346 135.382 64.1346C135.561 64.1346 135.736 64.1286 135.909 64.1167C136.088 64.0988 136.266 64.0899 136.445 64.0899C136.481 64.0899 136.501 64.1078 136.507 64.1435C136.513 64.1792 136.516 64.209 136.516 64.2328C136.516 64.2566 136.513 64.2864 136.507 64.3221C136.501 64.3578 136.481 64.3757 136.445 64.3757C136.367 64.3757 136.293 64.3727 136.222 64.3667C136.15 64.3608 136.079 64.3578 136.007 64.3578C135.936 64.3578 135.847 64.3757 135.739 64.4114C135.638 64.4411 135.588 64.5007 135.588 64.59V70.0816C135.588 70.2185 135.626 70.3048 135.704 70.3405C135.787 70.3703 135.891 70.3852 136.016 70.3852C136.088 70.3852 136.159 70.3822 136.23 70.3762C136.302 70.3703 136.376 70.3673 136.454 70.3673C136.501 70.3673 136.528 70.3852 136.534 70.4209C136.54 70.4566 136.543 70.4893 136.543 70.5191ZM139.492 70.5102C139.492 70.5399 139.483 70.5697 139.465 70.5995C139.447 70.6233 139.424 70.6352 139.394 70.6352C139.227 70.6352 139.061 70.6322 138.894 70.6262C138.733 70.6143 138.566 70.6084 138.394 70.6084H138.153C137.974 70.6084 137.796 70.6143 137.617 70.6262C137.444 70.6322 137.272 70.6352 137.099 70.6352C137.075 70.6352 137.057 70.6203 137.045 70.5905C137.039 70.5608 137.037 70.537 137.037 70.5191C137.037 70.4893 137.039 70.4685 137.045 70.4566C137.051 70.4387 137.069 70.4268 137.099 70.4209C137.129 70.409 137.162 70.406 137.197 70.4119C137.239 70.4119 137.278 70.4119 137.313 70.4119C137.355 70.4119 137.394 70.4149 137.429 70.4209C137.465 70.4209 137.504 70.4209 137.545 70.4209C137.629 70.4209 137.703 70.403 137.769 70.3673C137.84 70.3256 137.876 70.2572 137.876 70.1619V66.5902C137.876 66.489 137.858 66.4116 137.822 66.358C137.787 66.2985 137.712 66.2687 137.599 66.2687C137.516 66.2687 137.429 66.2746 137.34 66.2866C137.257 66.2925 137.173 66.3014 137.09 66.3133C137.042 66.3133 137.019 66.2866 137.019 66.233C137.019 66.1734 137.042 66.1348 137.09 66.1169C137.162 66.0931 137.236 66.0782 137.313 66.0722C137.397 66.0603 137.474 66.0484 137.545 66.0365C137.712 66.0068 137.879 65.974 138.046 65.9383C138.212 65.9026 138.376 65.8639 138.537 65.8222C138.555 65.8163 138.578 65.8133 138.608 65.8133C138.674 65.8133 138.706 65.849 138.706 65.9204C138.706 66.6229 138.703 67.3283 138.697 68.0367C138.697 68.7451 138.697 69.4535 138.697 70.1619C138.697 70.2572 138.739 70.3256 138.822 70.3673C138.912 70.403 138.995 70.4209 139.072 70.4209C139.132 70.4209 139.191 70.4179 139.251 70.4119C139.316 70.406 139.379 70.403 139.439 70.403C139.462 70.403 139.477 70.4179 139.483 70.4477C139.489 70.4774 139.492 70.4983 139.492 70.5102ZM138.769 64.331C138.769 64.4798 138.715 64.6078 138.608 64.715C138.501 64.8162 138.373 64.8668 138.224 64.8668C138.075 64.8668 137.947 64.8162 137.84 64.715C137.733 64.6078 137.679 64.4798 137.679 64.331C137.679 64.1822 137.733 64.0572 137.84 63.956C137.947 63.8488 138.075 63.7952 138.224 63.7952C138.373 63.7952 138.501 63.8488 138.608 63.956C138.715 64.0572 138.769 64.1822 138.769 64.331ZM142.544 70.528C142.544 70.5578 142.535 70.5876 142.517 70.6173C142.505 70.6411 142.481 70.653 142.445 70.653C142.261 70.653 142.073 70.6501 141.883 70.6441C141.692 70.6322 141.502 70.6262 141.311 70.6262H140.999C140.874 70.6262 140.749 70.6322 140.624 70.6441C140.499 70.6501 140.374 70.653 140.249 70.653C140.225 70.653 140.207 70.6441 140.195 70.6262C140.189 70.6024 140.186 70.5816 140.186 70.5637C140.186 70.5459 140.186 70.528 140.186 70.5102C140.186 70.4923 140.189 70.4744 140.195 70.4566C140.207 70.4328 140.24 70.4209 140.294 70.4209C140.353 70.4149 140.413 70.4149 140.472 70.4209C140.538 70.4209 140.579 70.4209 140.597 70.4209C140.68 70.4209 140.755 70.403 140.82 70.3673C140.886 70.3256 140.919 70.2572 140.919 70.1619C140.919 69.7035 140.922 69.2481 140.927 68.7957C140.933 68.3373 140.936 67.8819 140.936 67.4295C140.936 66.9652 140.933 66.5009 140.927 66.0365C140.927 65.5662 140.927 65.0989 140.927 64.6346C140.927 64.5929 140.925 64.5483 140.919 64.5007C140.913 64.4471 140.895 64.4054 140.865 64.3757C140.841 64.3459 140.817 64.331 140.794 64.331C140.77 64.3251 140.74 64.3221 140.704 64.3221C140.597 64.3221 140.49 64.3399 140.383 64.3757C140.282 64.4114 140.18 64.4292 140.079 64.4292C140.014 64.4292 139.981 64.3905 139.981 64.3132C139.981 64.2655 140.017 64.2328 140.088 64.2149C140.166 64.1971 140.225 64.1852 140.267 64.1792C140.475 64.1316 140.701 64.078 140.945 64.0185C141.189 63.959 141.41 63.8905 141.606 63.8131C141.618 63.8131 141.63 63.8101 141.642 63.8042C141.654 63.7982 141.663 63.7952 141.669 63.7952C141.704 63.7952 141.725 63.8072 141.731 63.831C141.743 63.8548 141.749 63.8816 141.749 63.9113C141.749 64.078 141.746 64.2447 141.74 64.4114C141.74 64.5721 141.74 64.7358 141.74 64.9025V67.4027C141.74 67.8611 141.743 68.3225 141.749 68.7868C141.755 69.2452 141.758 69.7035 141.758 70.1619C141.758 70.2572 141.797 70.3256 141.874 70.3673C141.957 70.403 142.038 70.4209 142.115 70.4209C142.181 70.4209 142.243 70.4179 142.303 70.4119C142.362 70.406 142.422 70.403 142.481 70.403C142.511 70.403 142.529 70.4209 142.535 70.4566C142.541 70.4864 142.544 70.5102 142.544 70.528ZM148.095 70.5102C148.095 70.5518 148.053 70.5816 147.97 70.5995C147.887 70.6173 147.798 70.6292 147.702 70.6352C147.613 70.6411 147.55 70.6441 147.515 70.6441C147.431 70.6441 147.339 70.6441 147.238 70.6441C147.137 70.6382 147.044 70.6233 146.961 70.5995C146.884 70.5756 146.818 70.534 146.765 70.4744C146.717 70.4149 146.675 70.3554 146.64 70.2959C146.372 69.8851 146.107 69.4744 145.845 69.0636C145.583 68.6528 145.324 68.2391 145.068 67.8224L144.55 68.2064V70.2066C144.55 70.3494 144.622 70.4209 144.764 70.4209C144.818 70.4209 144.872 70.4209 144.925 70.4209C144.979 70.4149 145.029 70.4119 145.077 70.4119C145.107 70.4119 145.137 70.4209 145.166 70.4387C145.202 70.4566 145.22 70.4834 145.22 70.5191C145.22 70.5905 145.187 70.6262 145.122 70.6262C144.955 70.6262 144.791 70.6262 144.631 70.6262C144.47 70.6203 144.306 70.6173 144.139 70.6173C144.026 70.6173 143.907 70.6203 143.782 70.6262C143.663 70.6262 143.544 70.6292 143.425 70.6352C143.389 70.6352 143.351 70.6382 143.309 70.6441C143.273 70.6501 143.235 70.653 143.193 70.653C143.169 70.653 143.148 70.6411 143.13 70.6173C143.119 70.5876 143.113 70.5608 143.113 70.537C143.113 70.4953 143.13 70.4685 143.166 70.4566C143.202 70.4447 143.235 70.4387 143.264 70.4387C143.294 70.4387 143.327 70.4417 143.363 70.4477C143.398 70.4477 143.431 70.4477 143.461 70.4477C143.556 70.4477 143.63 70.4387 143.684 70.4209C143.738 70.3971 143.764 70.3316 143.764 70.2244V64.4739C143.764 64.337 143.741 64.2447 143.693 64.1971C143.645 64.1494 143.55 64.1256 143.407 64.1256C143.36 64.1256 143.312 64.1316 143.264 64.1435C143.217 64.1494 143.169 64.1524 143.121 64.1524C143.062 64.1524 143.032 64.1227 143.032 64.0631C143.032 64.0215 143.056 63.9947 143.104 63.9828C143.217 63.953 143.333 63.9322 143.452 63.9203C143.577 63.9024 143.696 63.8845 143.809 63.8667C143.863 63.8548 143.937 63.8399 144.032 63.822C144.128 63.7982 144.22 63.7774 144.309 63.7595C144.404 63.7417 144.47 63.7327 144.506 63.7327C144.535 63.7327 144.55 63.7506 144.55 63.7863L144.541 67.9385C144.845 67.7123 145.137 67.4742 145.416 67.2241C145.696 66.9741 145.973 66.7211 146.247 66.4651C146.348 66.3758 146.443 66.2866 146.533 66.1973C146.622 66.102 146.705 66.0038 146.783 65.9026C146.818 65.8609 146.869 65.8401 146.934 65.8401C146.994 65.8401 147.05 65.8431 147.104 65.849C147.164 65.855 147.223 65.8579 147.283 65.8579C147.354 65.8579 147.425 65.855 147.497 65.849C147.574 65.8431 147.649 65.8401 147.72 65.8401C147.809 65.8401 147.854 65.8877 147.854 65.983C147.854 66.0306 147.818 66.0544 147.747 66.0544C147.652 66.0603 147.559 66.0693 147.47 66.0812C147.381 66.0931 147.294 66.1318 147.211 66.1973C146.943 66.3878 146.681 66.5902 146.425 66.8045C146.169 67.0188 145.91 67.2301 145.649 67.4384C145.756 67.623 145.869 67.8046 145.988 67.9831C146.107 68.1558 146.223 68.3284 146.336 68.501C146.497 68.7392 146.658 68.9773 146.818 69.2154C146.985 69.4476 147.152 69.6797 147.318 69.9119C147.402 70.025 147.506 70.1381 147.631 70.2512C147.762 70.3584 147.899 70.4179 148.042 70.4298C148.077 70.4358 148.095 70.4625 148.095 70.5102ZM155.701 65.3758C155.701 65.4293 155.68 65.474 155.639 65.5097C155.603 65.5395 155.561 65.5543 155.514 65.5543C155.454 65.5543 155.415 65.5424 155.398 65.5186C155.38 65.4889 155.362 65.4502 155.344 65.4025C155.243 65.0811 155.088 64.843 154.88 64.6882C154.671 64.5334 154.395 64.456 154.049 64.456H152.424V67.1438C152.698 67.1378 152.972 67.1348 153.246 67.1348C153.519 67.1289 153.793 67.114 154.067 67.0902C154.246 67.0783 154.421 67.0575 154.594 67.0277C154.767 66.9979 154.939 66.9682 155.112 66.9384H155.13C155.142 66.9384 155.154 66.9444 155.165 66.9563C155.183 66.9622 155.192 66.9711 155.192 66.983C155.192 67.0247 155.171 67.0991 155.13 67.2063C155.088 67.3075 155.058 67.3789 155.04 67.4206C155.011 67.492 154.966 67.5277 154.906 67.5277C154.865 67.5277 154.82 67.5277 154.773 67.5277C154.731 67.5218 154.686 67.5158 154.639 67.5099C154.43 67.4861 154.219 67.4742 154.005 67.4742C153.796 67.4682 153.588 67.4652 153.38 67.4652C153.302 67.4652 153.21 67.4652 153.103 67.4652C152.996 67.4652 152.888 67.4742 152.781 67.492C152.68 67.5099 152.594 67.5486 152.522 67.6081C152.457 67.6617 152.424 67.745 152.424 67.8581V69.8762C152.424 69.9417 152.439 70.0042 152.469 70.0637C152.504 70.1173 152.546 70.1679 152.594 70.2155C152.683 70.2929 152.793 70.3405 152.924 70.3584C153.061 70.3703 153.186 70.3762 153.299 70.3762C153.383 70.3762 153.424 70.4209 153.424 70.5102C153.424 70.6054 153.371 70.653 153.263 70.653C153.168 70.653 153.07 70.6501 152.969 70.6441C152.868 70.6322 152.766 70.6262 152.665 70.6262C152.546 70.6262 152.424 70.6262 152.299 70.6262C152.18 70.6203 152.061 70.6173 151.942 70.6173C151.74 70.6173 151.537 70.6262 151.335 70.6441C151.138 70.656 150.936 70.662 150.728 70.662C150.704 70.662 150.677 70.653 150.647 70.6352C150.623 70.6114 150.611 70.5846 150.611 70.5548C150.611 70.5131 150.614 70.4804 150.62 70.4566C150.632 70.4268 150.662 70.409 150.71 70.403C150.757 70.3911 150.808 70.3852 150.861 70.3852C150.915 70.3792 150.966 70.3732 151.013 70.3673C151.234 70.3197 151.37 70.2334 151.424 70.1083C151.484 69.9774 151.513 69.8107 151.513 69.6083V64.8311C151.513 64.6941 151.466 64.6048 151.37 64.5632C151.275 64.5215 151.162 64.5007 151.031 64.5007C150.906 64.5007 150.799 64.5007 150.71 64.5007C150.597 64.5007 150.54 64.4501 150.54 64.3489C150.54 64.3012 150.546 64.2596 150.558 64.2239C150.576 64.1881 150.611 64.1703 150.665 64.1703C150.772 64.1703 150.879 64.1733 150.986 64.1792C151.1 64.1852 151.21 64.1881 151.317 64.1881H152.888C153.186 64.1881 153.484 64.1852 153.781 64.1792C154.085 64.1673 154.386 64.1614 154.683 64.1614C154.957 64.1614 155.231 64.1524 155.505 64.1346C155.535 64.3132 155.573 64.5215 155.621 64.7596C155.674 64.9977 155.701 65.2031 155.701 65.3758ZM159.99 68.2867C159.99 68.0308 159.97 67.7748 159.928 67.5188C159.892 67.2569 159.821 67.0158 159.714 66.7955C159.612 66.5753 159.464 66.3997 159.267 66.2687C159.071 66.1318 158.815 66.0633 158.499 66.0633C158.202 66.0633 157.958 66.1348 157.767 66.2776C157.582 66.4205 157.437 66.605 157.329 66.8312C157.228 67.0575 157.157 67.3015 157.115 67.5635C157.079 67.8254 157.062 68.0724 157.062 68.3046C157.062 68.5606 157.079 68.8166 157.115 69.0725C157.157 69.3285 157.231 69.5607 157.338 69.769C157.446 69.9714 157.597 70.1351 157.794 70.2601C157.996 70.3852 158.255 70.4477 158.571 70.4477C158.88 70.4477 159.127 70.3822 159.312 70.2512C159.502 70.1202 159.645 69.9476 159.74 69.7333C159.842 69.519 159.907 69.2868 159.937 69.0368C159.973 68.7808 159.99 68.5308 159.99 68.2867ZM160.91 68.3135C160.91 68.76 160.803 69.1618 160.589 69.519C160.38 69.8762 160.095 70.1589 159.732 70.3673C159.374 70.5756 158.973 70.6798 158.526 70.6798C158.091 70.6798 157.699 70.5756 157.347 70.3673C156.996 70.153 156.716 69.8702 156.508 69.519C156.3 69.1618 156.195 68.766 156.195 68.3314C156.195 67.8849 156.297 67.4742 156.499 67.0991C156.701 66.7181 156.978 66.4116 157.329 66.1794C157.687 65.9472 158.097 65.8312 158.562 65.8312C159.062 65.8312 159.487 65.9383 159.839 66.1526C160.19 66.361 160.455 66.6527 160.633 67.0277C160.818 67.3968 160.91 67.8254 160.91 68.3135ZM164.554 69.5994C164.531 69.3315 164.516 69.0636 164.51 68.7957C164.51 68.5219 164.507 68.248 164.501 67.9742H164.376C164.191 67.9742 163.986 68.004 163.76 68.0635C163.539 68.1171 163.328 68.2004 163.126 68.3135C162.923 68.4266 162.757 68.5695 162.626 68.7421C162.501 68.9088 162.438 69.1023 162.438 69.3226C162.438 69.6083 162.519 69.8256 162.679 69.9744C162.84 70.1173 163.057 70.1887 163.331 70.1887C163.462 70.1887 163.605 70.1589 163.76 70.0994C163.914 70.0339 164.063 69.9565 164.206 69.8672C164.349 69.778 164.465 69.6887 164.554 69.5994ZM166.117 70.1708C166.117 70.1947 166.114 70.2125 166.108 70.2244C166.049 70.3554 165.947 70.4566 165.805 70.528C165.668 70.5935 165.531 70.6262 165.394 70.6262C165.144 70.6262 164.962 70.5548 164.849 70.4119C164.742 70.2631 164.656 70.0816 164.59 69.8672C164.364 70.0756 164.114 70.2512 163.84 70.3941C163.566 70.531 163.272 70.5995 162.956 70.5995C162.736 70.5995 162.527 70.5578 162.331 70.4744C162.141 70.3852 161.986 70.2572 161.867 70.0905C161.748 69.9238 161.688 69.7214 161.688 69.4833C161.688 69.2333 161.751 69.019 161.876 68.8404C162.007 68.6558 162.17 68.501 162.367 68.376C162.569 68.2451 162.783 68.1409 163.01 68.0635C163.242 67.9802 163.459 67.9177 163.661 67.876C163.798 67.8462 163.938 67.8194 164.081 67.7956C164.224 67.7718 164.364 67.748 164.501 67.7242C164.501 67.5575 164.492 67.364 164.474 67.1438C164.462 66.9235 164.418 66.742 164.34 66.5991C164.263 66.4622 164.159 66.3401 164.028 66.233C163.897 66.1258 163.751 66.0722 163.59 66.0722C163.316 66.0722 163.102 66.1437 162.947 66.2866C162.792 66.4294 162.682 66.6318 162.617 66.8938C162.611 66.9235 162.605 66.9563 162.599 66.992C162.599 67.0217 162.596 67.0515 162.59 67.0813C162.584 67.117 162.56 67.1497 162.519 67.1795C162.483 67.2033 162.444 67.2152 162.402 67.2152C162.289 67.2152 162.185 67.1884 162.09 67.1348C162.001 67.0813 161.956 66.992 161.956 66.867C161.956 66.7955 161.968 66.733 161.992 66.6794C162.069 66.4949 162.194 66.3431 162.367 66.224C162.539 66.099 162.73 66.0038 162.938 65.9383C163.153 65.8728 163.352 65.8401 163.536 65.8401C163.858 65.8401 164.15 65.8996 164.412 66.0187C164.673 66.1377 164.882 66.3133 165.037 66.5455C165.197 66.7717 165.278 67.0575 165.278 67.4027C165.278 67.7897 165.275 68.1796 165.269 68.5725C165.269 68.9654 165.281 69.3583 165.305 69.7512C165.31 69.8821 165.337 69.9982 165.385 70.0994C165.432 70.1947 165.531 70.2423 165.68 70.2423C165.757 70.2423 165.837 70.2244 165.921 70.1887C166.01 70.147 166.066 70.1262 166.09 70.1262C166.108 70.1262 166.117 70.1411 166.117 70.1708ZM174.314 70.528C174.314 70.6114 174.281 70.653 174.216 70.653C174.049 70.653 173.879 70.6471 173.707 70.6352C173.534 70.6233 173.361 70.6173 173.189 70.6173C173.016 70.6173 172.84 70.6233 172.662 70.6352C172.489 70.6471 172.317 70.653 172.144 70.653C172.12 70.653 172.102 70.6382 172.09 70.6084C172.084 70.5786 172.081 70.5548 172.081 70.537C172.081 70.4834 172.108 70.4506 172.162 70.4387C172.221 70.4268 172.284 70.4238 172.349 70.4298C172.421 70.4358 172.474 70.4387 172.51 70.4387C172.593 70.4387 172.662 70.4179 172.715 70.3762C172.769 70.3346 172.796 70.272 172.796 70.1887C172.796 69.7899 172.799 69.394 172.805 69.0011C172.817 68.6082 172.823 68.2153 172.823 67.8224C172.823 67.7569 172.823 67.6914 172.823 67.626C172.823 67.5605 172.82 67.495 172.814 67.4295C172.808 67.2866 172.799 67.1408 172.787 66.992C172.781 66.8372 172.757 66.6943 172.715 66.5634C172.674 66.4264 172.602 66.3163 172.501 66.233C172.4 66.1496 172.254 66.108 172.064 66.108C171.927 66.108 171.775 66.1496 171.608 66.233C171.447 66.3104 171.293 66.4026 171.144 66.5098C170.995 66.6169 170.87 66.7181 170.769 66.8134C170.781 66.8967 170.787 66.983 170.787 67.0723C170.787 67.1557 170.787 67.239 170.787 67.3224C170.787 67.495 170.787 67.6706 170.787 67.8492C170.793 68.0218 170.796 68.1945 170.796 68.3671C170.796 68.6707 170.793 68.9743 170.787 69.2779C170.787 69.5815 170.787 69.8851 170.787 70.1887C170.787 70.278 170.825 70.3405 170.903 70.3762C170.98 70.4119 171.058 70.4298 171.135 70.4298C171.183 70.4298 171.23 70.4268 171.278 70.4209C171.331 70.4149 171.379 70.4119 171.421 70.4119C171.45 70.4119 171.468 70.4268 171.474 70.4566C171.486 70.4864 171.492 70.5102 171.492 70.528C171.492 70.5578 171.483 70.5876 171.465 70.6173C171.447 70.6411 171.421 70.653 171.385 70.653C171.218 70.653 171.049 70.6471 170.876 70.6352C170.709 70.6233 170.54 70.6173 170.367 70.6173C170.2 70.6173 170.031 70.6233 169.858 70.6352C169.685 70.6471 169.513 70.653 169.34 70.653C169.316 70.653 169.298 70.6382 169.287 70.6084C169.275 70.5786 169.269 70.5548 169.269 70.537C169.269 70.4893 169.292 70.4566 169.34 70.4387C169.388 70.4268 169.444 70.4238 169.51 70.4298C169.581 70.4358 169.641 70.4387 169.688 70.4387C169.772 70.4387 169.84 70.4209 169.894 70.3852C169.953 70.3435 169.983 70.278 169.983 70.1887V67.9117C169.983 67.7867 169.98 67.6319 169.974 67.4474C169.974 67.2628 169.962 67.0813 169.938 66.9027C169.921 66.7181 169.888 66.5723 169.84 66.4651C169.798 66.358 169.727 66.2746 169.626 66.2151C169.531 66.1556 169.423 66.1258 169.304 66.1258C169.15 66.1258 168.992 66.1645 168.831 66.2419C168.67 66.3193 168.519 66.4145 168.376 66.5276C168.233 66.6408 168.111 66.7539 168.01 66.867V70.1798C168.01 70.2691 168.042 70.3346 168.108 70.3762C168.173 70.4119 168.245 70.4298 168.322 70.4298C168.37 70.4298 168.417 70.4268 168.465 70.4209C168.513 70.409 168.557 70.403 168.599 70.403C168.623 70.403 168.638 70.4209 168.644 70.4566C168.65 70.4864 168.653 70.5072 168.653 70.5191C168.653 70.5489 168.644 70.5786 168.626 70.6084C168.614 70.6322 168.59 70.6441 168.554 70.6441C168.441 70.6441 168.328 70.6411 168.215 70.6352C168.102 70.6233 167.989 70.6173 167.876 70.6173C167.649 70.6173 167.423 70.6233 167.197 70.6352C166.971 70.6411 166.745 70.6441 166.518 70.6441C166.495 70.6441 166.477 70.6292 166.465 70.5995C166.453 70.5697 166.447 70.5459 166.447 70.528C166.447 70.4566 166.477 70.4209 166.536 70.4209C166.602 70.4209 166.664 70.4238 166.724 70.4298C166.783 70.4298 166.843 70.4298 166.902 70.4298C166.986 70.4298 167.057 70.4119 167.117 70.3762C167.176 70.3346 167.206 70.2691 167.206 70.1798C167.206 69.5785 167.203 68.9773 167.197 68.376C167.197 67.7688 167.197 67.1646 167.197 66.5634C167.197 66.4979 167.191 66.4324 167.179 66.3669C167.167 66.3014 167.129 66.2568 167.063 66.233C167.021 66.2151 166.977 66.2062 166.929 66.2062C166.852 66.2062 166.774 66.2181 166.697 66.2419C166.62 66.2598 166.539 66.2687 166.456 66.2687C166.402 66.2687 166.376 66.233 166.376 66.1615C166.376 66.1139 166.393 66.0842 166.429 66.0722C166.459 66.0603 166.492 66.0544 166.527 66.0544C166.569 66.0484 166.608 66.0425 166.643 66.0365C166.78 66.0187 166.917 65.9978 167.054 65.974C167.197 65.9443 167.334 65.9145 167.465 65.8847C167.513 65.8728 167.563 65.8609 167.617 65.849C167.67 65.8371 167.724 65.8312 167.777 65.8312C167.849 65.8312 167.897 65.8847 167.92 65.9919C167.95 66.0931 167.965 66.2032 167.965 66.3223C167.971 66.4413 167.974 66.5276 167.974 66.5812C168.099 66.4741 168.239 66.3639 168.394 66.2508C168.548 66.1318 168.712 66.0306 168.885 65.9472C169.057 65.8639 169.23 65.8222 169.403 65.8222C169.706 65.8222 169.962 65.8728 170.171 65.974C170.379 66.0752 170.557 66.2657 170.706 66.5455C170.837 66.4324 170.986 66.3193 171.153 66.2062C171.319 66.0871 171.492 65.9889 171.671 65.9115C171.855 65.8282 172.037 65.7865 172.215 65.7865C172.608 65.7865 172.906 65.8431 173.108 65.9562C173.317 66.0693 173.457 66.2449 173.528 66.483C173.605 66.7152 173.644 67.0158 173.644 67.3849C173.644 67.8492 173.641 68.3165 173.635 68.7868C173.629 69.2511 173.626 69.7184 173.626 70.1887C173.626 70.278 173.665 70.3405 173.742 70.3762C173.826 70.4119 173.906 70.4298 173.983 70.4298C174.031 70.4298 174.076 70.4268 174.117 70.4209C174.165 70.4149 174.21 70.4119 174.251 70.4119C174.275 70.4119 174.29 70.4268 174.296 70.4566C174.308 70.4864 174.314 70.5102 174.314 70.528Z" fill="black"/>
    <circle cx="191.574" cy="67.7147" r="8.92941" fill="#533A2F"/>
    <path d="M213.677 69.1172C213.677 69.2243 213.668 69.3345 213.65 69.4476C213.632 69.5547 213.617 69.6619 213.605 69.769C213.587 69.8881 213.576 70.0101 213.57 70.1351C213.564 70.2542 213.546 70.3732 213.516 70.4923C213.51 70.528 213.492 70.5637 213.462 70.5995C213.439 70.6292 213.406 70.6441 213.364 70.6441C212.727 70.6441 212.09 70.6411 211.453 70.6352C210.816 70.6233 210.179 70.6173 209.542 70.6173C209.352 70.6173 209.158 70.6262 208.962 70.6441C208.772 70.656 208.581 70.662 208.391 70.662C208.361 70.662 208.331 70.653 208.301 70.6352C208.277 70.6114 208.266 70.5846 208.266 70.5548C208.266 70.5191 208.274 70.4864 208.292 70.4566C208.31 70.4209 208.34 70.403 208.382 70.403C208.507 70.403 208.626 70.3971 208.739 70.3852C208.852 70.3673 208.944 70.3256 209.016 70.2601C209.093 70.1887 209.132 70.0756 209.132 69.9208V64.7953C209.132 64.6584 209.09 64.5691 209.007 64.5275C208.923 64.4798 208.822 64.456 208.703 64.456C208.644 64.456 208.587 64.459 208.533 64.465C208.48 64.465 208.426 64.465 208.373 64.465C208.325 64.465 208.283 64.453 208.248 64.4292C208.212 64.4054 208.194 64.3667 208.194 64.3132C208.194 64.2655 208.203 64.2239 208.221 64.1881C208.239 64.1524 208.277 64.1346 208.337 64.1346C208.438 64.1346 208.536 64.1375 208.632 64.1435C208.733 64.1494 208.831 64.1524 208.926 64.1524C209.528 64.1524 210.129 64.1494 210.73 64.1435C211.331 64.1316 211.93 64.1256 212.525 64.1256C212.799 64.1256 213.07 64.1167 213.337 64.0988C213.361 64.2715 213.391 64.4441 213.427 64.6168C213.462 64.7894 213.492 64.962 213.516 65.1347C213.528 65.1704 213.537 65.2061 213.543 65.2418C213.549 65.2716 213.552 65.3043 213.552 65.34C213.552 65.3996 213.531 65.4412 213.489 65.465C213.454 65.4889 213.409 65.5008 213.355 65.5008C213.308 65.5008 213.272 65.4918 213.248 65.474C213.23 65.4502 213.212 65.4144 213.195 65.3668C213.081 65.0096 212.93 64.7626 212.739 64.6257C212.555 64.4888 212.272 64.4203 211.891 64.4203H210.034V67.1081C210.266 67.1081 210.498 67.1081 210.73 67.1081C210.962 67.1021 211.197 67.0932 211.435 67.0813C211.68 67.0694 211.906 67.0485 212.114 67.0188C212.328 66.983 212.555 66.9444 212.793 66.9027H212.802C212.837 66.9027 212.855 66.9176 212.855 66.9473C212.855 66.989 212.837 67.0634 212.802 67.1706C212.766 67.2777 212.739 67.3492 212.721 67.3849C212.692 67.4563 212.644 67.492 212.578 67.492C212.43 67.492 212.275 67.4831 212.114 67.4652C211.959 67.4414 211.805 67.4295 211.65 67.4295C211.543 67.4236 211.435 67.4236 211.328 67.4295C211.221 67.4295 211.111 67.4295 210.998 67.4295C210.956 67.4295 210.912 67.4295 210.864 67.4295C210.822 67.4236 210.778 67.4206 210.73 67.4206C210.641 67.4206 210.543 67.4295 210.435 67.4474C210.328 67.4593 210.233 67.495 210.15 67.5545C210.072 67.6081 210.034 67.6974 210.034 67.8224V69.9655C210.034 70.1679 210.084 70.2869 210.185 70.3226C210.287 70.3524 210.421 70.3673 210.587 70.3673H211.302C211.468 70.3673 211.653 70.3584 211.855 70.3405C212.064 70.3226 212.266 70.284 212.462 70.2244C212.659 70.1649 212.82 70.0786 212.945 69.9655C213.081 69.8405 213.177 69.7035 213.23 69.5547C213.29 69.3999 213.358 69.2452 213.436 69.0904C213.465 69.0368 213.513 69.01 213.579 69.01C213.644 69.01 213.677 69.0457 213.677 69.1172ZM217.658 69.3672C217.658 69.6351 217.598 69.8553 217.479 70.028C217.36 70.1947 217.205 70.3226 217.015 70.4119C216.824 70.5012 216.616 70.5637 216.39 70.5995C216.164 70.6352 215.943 70.653 215.729 70.653C215.533 70.653 215.336 70.6322 215.14 70.5905C214.949 70.5489 214.756 70.5191 214.559 70.5012C214.518 70.3405 214.476 70.1798 214.434 70.019C214.399 69.8583 214.357 69.7006 214.309 69.5458C214.303 69.5279 214.288 69.4863 214.265 69.4208C214.247 69.3553 214.238 69.3196 214.238 69.3136C214.238 69.266 214.253 69.2333 214.282 69.2154C214.312 69.1916 214.348 69.1797 214.39 69.1797C214.431 69.1797 214.461 69.1946 214.479 69.2243C214.515 69.266 214.544 69.3226 214.568 69.394C214.598 69.4654 214.625 69.5279 214.649 69.5815C214.696 69.6768 214.738 69.7512 214.774 69.8047C214.809 69.8524 214.866 69.9149 214.943 69.9923C215.175 70.2363 215.464 70.3584 215.809 70.3584C216 70.3584 216.172 70.3375 216.327 70.2959C216.488 70.2542 216.616 70.1768 216.711 70.0637C216.806 69.9446 216.854 69.775 216.854 69.5547C216.854 69.3642 216.795 69.2065 216.676 69.0815C216.556 68.9505 216.402 68.8344 216.211 68.7332C216.027 68.632 215.83 68.5338 215.622 68.4385C215.413 68.3433 215.214 68.2391 215.024 68.126C214.839 68.007 214.687 67.8641 214.568 67.6974C214.449 67.5307 214.39 67.3283 214.39 67.0902C214.39 66.7985 214.464 66.5604 214.613 66.3758C214.768 66.1913 214.964 66.0544 215.202 65.9651C215.44 65.8698 215.687 65.8222 215.943 65.8222C216.11 65.8222 216.259 65.8431 216.39 65.8847C216.527 65.9264 216.67 65.974 216.818 66.0276C216.866 66.0455 216.914 66.0574 216.961 66.0633C217.009 66.0693 217.057 66.0722 217.104 66.0722C217.134 66.0722 217.161 66.0722 217.184 66.0722C217.208 66.0722 217.232 66.0693 217.256 66.0633C217.274 66.1705 217.289 66.2806 217.301 66.3937C217.318 66.5009 217.333 66.611 217.345 66.7241C217.351 66.7658 217.357 66.8164 217.363 66.8759C217.375 66.9295 217.381 66.9801 217.381 67.0277C217.381 67.0694 217.372 67.114 217.354 67.1616C217.336 67.2033 217.301 67.2241 217.247 67.2241C217.205 67.2241 217.17 67.2212 217.14 67.2152C217.116 67.2033 217.095 67.1765 217.077 67.1348C217.048 67.0753 217.021 67.0128 216.997 66.9473C216.979 66.8759 216.958 66.8104 216.934 66.7509C216.857 66.5425 216.723 66.3758 216.533 66.2508C216.342 66.1199 216.137 66.0544 215.917 66.0544C215.637 66.0544 215.425 66.1377 215.283 66.3044C215.14 66.4651 215.068 66.6824 215.068 66.9563C215.068 67.0515 215.092 67.1438 215.14 67.2331C215.193 67.3224 215.253 67.3998 215.318 67.4652C215.443 67.5843 215.589 67.6766 215.756 67.742C215.928 67.8075 216.092 67.873 216.247 67.9385C216.449 68.0278 216.658 68.1349 216.872 68.26C217.092 68.385 217.277 68.5368 217.426 68.7154C217.58 68.8939 217.658 69.1112 217.658 69.3672ZM222.116 68.0903C222.116 67.8879 222.104 67.6766 222.08 67.4563C222.057 67.2301 222.006 67.0188 221.929 66.8223C221.851 66.6259 221.735 66.4681 221.58 66.3491C221.426 66.224 221.214 66.1615 220.946 66.1615C220.786 66.1615 220.613 66.2032 220.428 66.2866C220.25 66.3639 220.092 66.4711 219.955 66.608C219.824 66.7449 219.75 66.9027 219.732 67.0813C219.72 67.2658 219.714 67.4533 219.714 67.6438C219.714 67.8343 219.714 68.0248 219.714 68.2153C219.714 68.382 219.714 68.5516 219.714 68.7243C219.72 68.891 219.726 69.0606 219.732 69.2333C219.75 69.5369 219.848 69.7958 220.027 70.0101C220.205 70.2185 220.458 70.3226 220.786 70.3226C221.095 70.3226 221.339 70.2542 221.518 70.1173C221.696 69.9744 221.827 69.7899 221.911 69.5636C222 69.3374 222.057 69.0963 222.08 68.8404C222.104 68.5784 222.116 68.3284 222.116 68.0903ZM223.036 68.0992C223.036 68.5636 222.953 68.9832 222.786 69.3583C222.619 69.7333 222.369 70.031 222.036 70.2512C221.708 70.4655 221.298 70.5727 220.803 70.5727C220.613 70.5727 220.417 70.525 220.214 70.4298C220.018 70.3286 219.851 70.2125 219.714 70.0816V71.9835C219.714 72.0669 219.747 72.1145 219.812 72.1264C219.884 72.1383 219.949 72.1442 220.009 72.1442C220.062 72.1442 220.116 72.1413 220.17 72.1353C220.223 72.1294 220.277 72.1264 220.33 72.1264C220.408 72.1264 220.446 72.1651 220.446 72.2425C220.446 72.3318 220.402 72.3764 220.312 72.3764C220.128 72.3764 219.943 72.3705 219.759 72.3586C219.574 72.3466 219.39 72.3407 219.205 72.3407C219.05 72.3407 218.896 72.3466 218.741 72.3586C218.592 72.3705 218.44 72.3764 218.285 72.3764C218.244 72.3764 218.217 72.3615 218.205 72.3318C218.199 72.302 218.196 72.2752 218.196 72.2514C218.196 72.1681 218.238 72.1264 218.321 72.1264C218.369 72.1264 218.416 72.1264 218.464 72.1264C218.512 72.1323 218.559 72.1353 218.607 72.1353C218.649 72.1353 218.708 72.1294 218.785 72.1175C218.869 72.1056 218.91 72.0698 218.91 72.0103C218.91 71.3912 218.91 70.7691 218.91 70.1441C218.916 69.519 218.919 68.8969 218.919 68.2778C218.919 67.998 218.916 67.7212 218.91 67.4474C218.91 67.1735 218.907 66.8997 218.902 66.6259C218.896 66.4949 218.872 66.4056 218.83 66.358C218.788 66.3044 218.699 66.2776 218.562 66.2776C218.503 66.2776 218.443 66.2866 218.384 66.3044C218.324 66.3163 218.265 66.3223 218.205 66.3223C218.14 66.3223 218.107 66.2925 218.107 66.233C218.107 66.1794 218.134 66.1437 218.187 66.1258C218.199 66.1199 218.253 66.108 218.348 66.0901C218.443 66.0722 218.556 66.0514 218.687 66.0276C218.824 65.9978 218.958 65.971 219.089 65.9472C219.22 65.9234 219.33 65.9026 219.419 65.8847C219.509 65.8669 219.556 65.8579 219.562 65.8579C219.61 65.8579 219.643 65.8877 219.661 65.9472C219.672 65.983 219.678 66.0484 219.678 66.1437C219.684 66.233 219.687 66.3252 219.687 66.4205C219.687 66.5098 219.687 66.5782 219.687 66.6259C219.854 66.4056 220.065 66.224 220.321 66.0812C220.583 65.9324 220.854 65.8579 221.134 65.8579C221.545 65.8579 221.89 65.9681 222.17 66.1883C222.455 66.4026 222.67 66.6824 222.813 67.0277C222.961 67.367 223.036 67.7242 223.036 68.0992ZM227.022 67.5099C227.016 67.2658 226.995 67.0336 226.959 66.8134C226.924 66.5872 226.837 66.4026 226.7 66.2598C226.564 66.1109 226.34 66.0365 226.031 66.0365C225.751 66.0365 225.522 66.1139 225.343 66.2687C225.171 66.4175 225.037 66.608 224.941 66.8402C224.846 67.0664 224.775 67.2986 224.727 67.5367C224.876 67.5426 225.022 67.5486 225.165 67.5545C225.307 67.5545 225.45 67.5545 225.593 67.5545C225.831 67.5545 226.069 67.5516 226.308 67.5456C226.546 67.5337 226.784 67.5218 227.022 67.5099ZM228.049 69.5547C228.049 69.5845 228.043 69.6023 228.031 69.6083C228.013 69.6678 227.968 69.7393 227.897 69.8226C227.832 69.9059 227.757 69.9863 227.674 70.0637C227.59 70.1351 227.522 70.1887 227.468 70.2244C227.272 70.3613 227.049 70.4715 226.799 70.5548C226.555 70.6382 226.311 70.6798 226.066 70.6798C225.864 70.6798 225.638 70.6471 225.388 70.5816C225.144 70.5161 224.935 70.4268 224.763 70.3137C224.429 70.0935 224.185 69.8047 224.031 69.4476C223.876 69.0904 223.798 68.7183 223.798 68.3314C223.798 67.8909 223.885 67.4831 224.057 67.1081C224.23 66.733 224.507 66.4294 224.888 66.1973C225.06 66.0961 225.254 66.0127 225.468 65.9472C225.683 65.8758 225.888 65.8401 226.084 65.8401C226.436 65.8401 226.745 65.9115 227.013 66.0544C227.281 66.1973 227.489 66.3997 227.638 66.6616C227.793 66.9176 227.87 67.2241 227.87 67.5813C227.87 67.6825 227.846 67.748 227.799 67.7778C227.757 67.8075 227.692 67.8224 227.602 67.8224C227.483 67.8224 227.364 67.8194 227.245 67.8135C227.126 67.8075 227.007 67.8016 226.888 67.7956C226.721 67.7837 226.555 67.7778 226.388 67.7778C226.227 67.7778 226.063 67.7778 225.897 67.7778C225.694 67.7778 225.492 67.7778 225.29 67.7778C225.087 67.7778 224.885 67.7837 224.682 67.7956C224.676 67.8909 224.671 67.9831 224.665 68.0724C224.659 68.1617 224.656 68.254 224.656 68.3492C224.656 68.5695 224.682 68.7987 224.736 69.0368C224.79 69.269 224.876 69.4863 224.995 69.6887C225.114 69.8851 225.266 70.0458 225.45 70.1708C225.635 70.2899 225.858 70.3494 226.12 70.3494C226.388 70.3494 226.644 70.3078 226.888 70.2244C227.132 70.1411 227.355 70.0071 227.558 69.8226C227.611 69.769 227.659 69.7125 227.701 69.6529C227.748 69.5875 227.799 69.5309 227.852 69.4833C227.882 69.4535 227.915 69.4386 227.951 69.4386C227.98 69.4386 228.004 69.4505 228.022 69.4744C228.04 69.4982 228.049 69.525 228.049 69.5547ZM232.129 66.6705C232.129 66.73 232.105 66.7866 232.057 66.8402C232.016 66.8878 231.962 66.9116 231.897 66.9116C231.807 66.9116 231.742 66.8818 231.7 66.8223C231.665 66.7628 231.632 66.6943 231.602 66.6169C231.578 66.5396 231.54 66.4711 231.486 66.4116C231.432 66.352 231.343 66.3223 231.218 66.3223C231.194 66.3223 231.17 66.3223 231.147 66.3223C231.129 66.3223 231.108 66.3252 231.084 66.3312C230.983 66.3491 230.873 66.4116 230.754 66.5187C230.635 66.6259 230.519 66.7539 230.405 66.9027C230.298 67.0456 230.209 67.1884 230.138 67.3313C230.066 67.4742 230.027 67.5932 230.022 67.6885C230.016 67.7837 230.013 67.879 230.013 67.9742C230.013 68.0635 230.013 68.1528 230.013 68.2421C230.013 68.5636 230.013 68.885 230.013 69.2065C230.019 69.5279 230.022 69.8464 230.022 70.1619C230.022 70.2512 230.057 70.3167 230.129 70.3584C230.206 70.3941 230.283 70.4119 230.361 70.4119C230.42 70.4119 230.48 70.409 230.539 70.403C230.599 70.3971 230.658 70.3941 230.718 70.3941C230.748 70.3941 230.769 70.409 230.781 70.4387C230.792 70.4625 230.798 70.4864 230.798 70.5102C230.798 70.6054 230.751 70.653 230.655 70.653C230.477 70.653 230.298 70.6501 230.12 70.6441C229.941 70.6322 229.763 70.6262 229.584 70.6262C229.399 70.6262 229.212 70.6322 229.021 70.6441C228.837 70.656 228.649 70.662 228.459 70.662C228.435 70.662 228.417 70.6441 228.405 70.6084C228.399 70.5727 228.396 70.5429 228.396 70.5191C228.396 70.4596 228.42 70.4268 228.468 70.4209C228.533 70.409 228.602 70.406 228.673 70.4119C228.745 70.4179 228.81 70.4209 228.87 70.4209C228.959 70.4209 229.03 70.403 229.084 70.3673C229.143 70.3256 229.176 70.2572 229.182 70.1619C229.194 69.9714 229.2 69.778 229.2 69.5815C229.206 69.3851 229.209 69.1886 229.209 68.9922V68.126C229.203 67.87 229.2 67.617 229.2 67.367C229.206 67.111 229.197 66.858 229.173 66.608C229.167 66.489 229.135 66.4056 229.075 66.358C229.015 66.3044 228.926 66.2776 228.807 66.2776C228.759 66.2776 228.709 66.2836 228.655 66.2955C228.608 66.3014 228.557 66.3044 228.504 66.3044C228.456 66.3044 228.432 66.2687 228.432 66.1973C228.432 66.1556 228.453 66.1258 228.495 66.108C228.554 66.0901 228.617 66.0782 228.682 66.0722C228.748 66.0603 228.81 66.0514 228.87 66.0455C229.03 66.0157 229.191 65.9859 229.352 65.9562C229.513 65.9264 229.673 65.8907 229.834 65.849C229.888 65.8669 229.926 65.8996 229.95 65.9472C229.962 65.971 229.971 66.0365 229.977 66.1437C229.983 66.2508 229.986 66.3758 229.986 66.5187C229.986 66.6556 229.986 66.7866 229.986 66.9116C229.986 67.0307 229.986 67.114 229.986 67.1616C230.117 66.9533 230.266 66.7449 230.432 66.5366C230.599 66.3282 230.789 66.1556 231.004 66.0187C231.218 65.8818 231.459 65.8133 231.727 65.8133C231.87 65.8133 231.962 65.8579 232.004 65.9472C232.046 66.0365 232.072 66.1407 232.084 66.2598C232.096 66.3252 232.105 66.3937 232.111 66.4651C232.123 66.5366 232.129 66.605 232.129 66.6705ZM235.909 69.3672C235.909 69.6351 235.849 69.8553 235.73 70.028C235.611 70.1947 235.457 70.3226 235.266 70.4119C235.076 70.5012 234.867 70.5637 234.641 70.5995C234.415 70.6352 234.195 70.653 233.98 70.653C233.784 70.653 233.587 70.6322 233.391 70.5905C233.2 70.5489 233.007 70.5191 232.81 70.5012C232.769 70.3405 232.727 70.1798 232.685 70.019C232.65 69.8583 232.608 69.7006 232.56 69.5458C232.555 69.5279 232.54 69.4863 232.516 69.4208C232.498 69.3553 232.489 69.3196 232.489 69.3136C232.489 69.266 232.504 69.2333 232.534 69.2154C232.563 69.1916 232.599 69.1797 232.641 69.1797C232.682 69.1797 232.712 69.1946 232.73 69.2243C232.766 69.266 232.796 69.3226 232.819 69.394C232.849 69.4654 232.876 69.5279 232.9 69.5815C232.947 69.6768 232.989 69.7512 233.025 69.8047C233.061 69.8524 233.117 69.9149 233.194 69.9923C233.427 70.2363 233.715 70.3584 234.061 70.3584C234.251 70.3584 234.424 70.3375 234.579 70.2959C234.739 70.2542 234.867 70.1768 234.962 70.0637C235.058 69.9446 235.105 69.775 235.105 69.5547C235.105 69.3642 235.046 69.2065 234.927 69.0815C234.808 68.9505 234.653 68.8344 234.462 68.7332C234.278 68.632 234.081 68.5338 233.873 68.4385C233.665 68.3433 233.465 68.2391 233.275 68.126C233.09 68.007 232.938 67.8641 232.819 67.6974C232.7 67.5307 232.641 67.3283 232.641 67.0902C232.641 66.7985 232.715 66.5604 232.864 66.3758C233.019 66.1913 233.215 66.0544 233.453 65.9651C233.692 65.8698 233.939 65.8222 234.195 65.8222C234.361 65.8222 234.51 65.8431 234.641 65.8847C234.778 65.9264 234.921 65.974 235.07 66.0276C235.117 66.0455 235.165 66.0574 235.212 66.0633C235.26 66.0693 235.308 66.0722 235.355 66.0722C235.385 66.0722 235.412 66.0722 235.436 66.0722C235.46 66.0722 235.483 66.0693 235.507 66.0633C235.525 66.1705 235.54 66.2806 235.552 66.3937C235.57 66.5009 235.585 66.611 235.596 66.7241C235.602 66.7658 235.608 66.8164 235.614 66.8759C235.626 66.9295 235.632 66.9801 235.632 67.0277C235.632 67.0694 235.623 67.114 235.605 67.1616C235.588 67.2033 235.552 67.2241 235.498 67.2241C235.457 67.2241 235.421 67.2212 235.391 67.2152C235.367 67.2033 235.346 67.1765 235.329 67.1348C235.299 67.0753 235.272 67.0128 235.248 66.9473C235.23 66.8759 235.21 66.8104 235.186 66.7509C235.108 66.5425 234.974 66.3758 234.784 66.2508C234.593 66.1199 234.388 66.0544 234.168 66.0544C233.888 66.0544 233.677 66.1377 233.534 66.3044C233.391 66.4651 233.319 66.6824 233.319 66.9563C233.319 67.0515 233.343 67.1438 233.391 67.2331C233.444 67.3224 233.504 67.3998 233.569 67.4652C233.694 67.5843 233.84 67.6766 234.007 67.742C234.18 67.8075 234.343 67.873 234.498 67.9385C234.701 68.0278 234.909 68.1349 235.123 68.26C235.343 68.385 235.528 68.5368 235.677 68.7154C235.832 68.8939 235.909 69.1112 235.909 69.3672ZM239.894 69.3672C239.894 69.6351 239.835 69.8553 239.715 70.028C239.596 70.1947 239.442 70.3226 239.251 70.4119C239.061 70.5012 238.852 70.5637 238.626 70.5995C238.4 70.6352 238.18 70.653 237.965 70.653C237.769 70.653 237.572 70.6322 237.376 70.5905C237.185 70.5489 236.992 70.5191 236.796 70.5012C236.754 70.3405 236.712 70.1798 236.671 70.019C236.635 69.8583 236.593 69.7006 236.546 69.5458C236.54 69.5279 236.525 69.4863 236.501 69.4208C236.483 69.3553 236.474 69.3196 236.474 69.3136C236.474 69.266 236.489 69.2333 236.519 69.2154C236.549 69.1916 236.584 69.1797 236.626 69.1797C236.668 69.1797 236.697 69.1946 236.715 69.2243C236.751 69.266 236.781 69.3226 236.805 69.394C236.834 69.4654 236.861 69.5279 236.885 69.5815C236.932 69.6768 236.974 69.7512 237.01 69.8047C237.046 69.8524 237.102 69.9149 237.18 69.9923C237.412 70.2363 237.7 70.3584 238.046 70.3584C238.236 70.3584 238.409 70.3375 238.564 70.2959C238.724 70.2542 238.852 70.1768 238.948 70.0637C239.043 69.9446 239.09 69.775 239.09 69.5547C239.09 69.3642 239.031 69.2065 238.912 69.0815C238.793 68.9505 238.638 68.8344 238.448 68.7332C238.263 68.632 238.067 68.5338 237.858 68.4385C237.65 68.3433 237.45 68.2391 237.26 68.126C237.075 68.007 236.924 67.8641 236.805 67.6974C236.685 67.5307 236.626 67.3283 236.626 67.0902C236.626 66.7985 236.7 66.5604 236.849 66.3758C237.004 66.1913 237.2 66.0544 237.438 65.9651C237.677 65.8698 237.924 65.8222 238.18 65.8222C238.346 65.8222 238.495 65.8431 238.626 65.8847C238.763 65.9264 238.906 65.974 239.055 66.0276C239.102 66.0455 239.15 66.0574 239.198 66.0633C239.245 66.0693 239.293 66.0722 239.34 66.0722C239.37 66.0722 239.397 66.0722 239.421 66.0722C239.445 66.0722 239.468 66.0693 239.492 66.0633C239.51 66.1705 239.525 66.2806 239.537 66.3937C239.555 66.5009 239.57 66.611 239.582 66.7241C239.588 66.7658 239.593 66.8164 239.599 66.8759C239.611 66.9295 239.617 66.9801 239.617 67.0277C239.617 67.0694 239.608 67.114 239.59 67.1616C239.573 67.2033 239.537 67.2241 239.483 67.2241C239.442 67.2241 239.406 67.2212 239.376 67.2152C239.352 67.2033 239.332 67.1765 239.314 67.1348C239.284 67.0753 239.257 67.0128 239.233 66.9473C239.215 66.8759 239.195 66.8104 239.171 66.7509C239.093 66.5425 238.959 66.3758 238.769 66.2508C238.578 66.1199 238.373 66.0544 238.153 66.0544C237.873 66.0544 237.662 66.1377 237.519 66.3044C237.376 66.4651 237.305 66.6824 237.305 66.9563C237.305 67.0515 237.328 67.1438 237.376 67.2331C237.43 67.3224 237.489 67.3998 237.555 67.4652C237.68 67.5843 237.825 67.6766 237.992 67.742C238.165 67.8075 238.328 67.873 238.483 67.9385C238.686 68.0278 238.894 68.1349 239.108 68.26C239.329 68.385 239.513 68.5368 239.662 68.7154C239.817 68.8939 239.894 69.1112 239.894 69.3672ZM244.388 68.2867C244.388 68.0308 244.367 67.7748 244.326 67.5188C244.29 67.2569 244.219 67.0158 244.111 66.7955C244.01 66.5753 243.861 66.3997 243.665 66.2687C243.468 66.1318 243.212 66.0633 242.897 66.0633C242.599 66.0633 242.355 66.1348 242.165 66.2776C241.98 66.4205 241.834 66.605 241.727 66.8312C241.626 67.0575 241.555 67.3015 241.513 67.5635C241.477 67.8254 241.459 68.0724 241.459 68.3046C241.459 68.5606 241.477 68.8166 241.513 69.0725C241.555 69.3285 241.629 69.5607 241.736 69.769C241.843 69.9714 241.995 70.1351 242.192 70.2601C242.394 70.3852 242.653 70.4477 242.968 70.4477C243.278 70.4477 243.525 70.3822 243.71 70.2512C243.9 70.1202 244.043 69.9476 244.138 69.7333C244.239 69.519 244.305 69.2868 244.335 69.0368C244.37 68.7808 244.388 68.5308 244.388 68.2867ZM245.308 68.3135C245.308 68.76 245.201 69.1618 244.986 69.519C244.778 69.8762 244.492 70.1589 244.129 70.3673C243.772 70.5756 243.37 70.6798 242.924 70.6798C242.489 70.6798 242.096 70.5756 241.745 70.3673C241.394 70.153 241.114 69.8702 240.906 69.519C240.697 69.1618 240.593 68.766 240.593 68.3314C240.593 67.8849 240.694 67.4742 240.897 67.0991C241.099 66.7181 241.376 66.4116 241.727 66.1794C242.084 65.9472 242.495 65.8312 242.959 65.8312C243.46 65.8312 243.885 65.9383 244.236 66.1526C244.588 66.361 244.852 66.6527 245.031 67.0277C245.216 67.3968 245.308 67.8254 245.308 68.3135Z" fill="black"/>
    <defs>
        <clipPath id="clip0_50_22810">
            <rect width="232.678" height="35.8962" fill="white" transform="translate(10.4175 6.10352e-05)"/>
        </clipPath>
    </defs>
</svg>
