<svg width="18" height="19" viewBox="0 0 18 19" fill="none" xmlns="http://www.w3.org/2000/svg">
    <g clip-path="url(#clip0_19_4010)">
        <path d="M12.7501 11C12.7501 11.1989 12.6711 11.3897 12.5305 11.5303C12.3898 11.671 12.199 11.75 12.0001 11.75H6.00012C5.80121 11.75 5.61044 11.671 5.46979 11.5303C5.32914 11.3897 5.25012 11.1989 5.25012 11C5.25012 10.8011 5.32914 10.6103 5.46979 10.4697C5.61044 10.329 5.80121 10.25 6.00012 10.25H12.0001C12.199 10.25 12.3898 10.329 12.5305 10.4697C12.6711 10.6103 12.7501 10.8011 12.7501 11ZM9.75012 13.25H6.00012C5.80121 13.25 5.61044 13.329 5.46979 13.4697C5.32914 13.6103 5.25012 13.8011 5.25012 14C5.25012 14.1989 5.32914 14.3897 5.46979 14.5303C5.61044 14.671 5.80121 14.75 6.00012 14.75H9.75012C9.94903 14.75 10.1398 14.671 10.2805 14.5303C10.4211 14.3897 10.5001 14.1989 10.5001 14C10.5001 13.8011 10.4211 13.6103 10.2805 13.4697C10.1398 13.329 9.94903 13.25 9.75012 13.25ZM16.5001 8.36377V14.75C16.4989 15.7442 16.1035 16.6973 15.4005 17.4004C14.6975 18.1034 13.7443 18.4988 12.7501 18.5H5.25012C4.25593 18.4988 3.30279 18.1034 2.59979 17.4004C1.89678 16.6973 1.50131 15.7442 1.50012 14.75V4.25002C1.50131 3.25582 1.89678 2.30269 2.59979 1.59968C3.30279 0.896679 4.25593 0.501208 5.25012 0.500017H8.63637C9.32609 0.498242 10.0093 0.633208 10.6465 0.897112C11.2838 1.16102 11.8624 1.54862 12.3489 2.03752L14.9619 4.65202C15.451 5.1382 15.8389 5.71661 16.1029 6.35375C16.367 6.99089 16.502 7.67408 16.5001 8.36377ZM11.2884 3.09802C11.0523 2.86939 10.7873 2.67271 10.5001 2.51302V5.75002C10.5001 5.94893 10.5791 6.13969 10.7198 6.28035C10.8604 6.421 11.0512 6.50002 11.2501 6.50002H14.4871C14.3273 6.21291 14.1304 5.94813 13.9014 5.71252L11.2884 3.09802ZM15.0001 8.36377C15.0001 8.24002 14.9761 8.12152 14.9649 8.00002H11.2501C10.6534 8.00002 10.0811 7.76296 9.65913 7.34101C9.23717 6.91905 9.00012 6.34675 9.00012 5.75002V2.03527C8.87862 2.02402 8.75937 2.00002 8.63637 2.00002H5.25012C4.65338 2.00002 4.08109 2.23707 3.65913 2.65903C3.23717 3.08098 3.00012 3.65328 3.00012 4.25002V14.75C3.00012 15.3468 3.23717 15.9191 3.65913 16.341C4.08109 16.763 4.65338 17 5.25012 17H12.7501C13.3469 17 13.9192 16.763 14.3411 16.341C14.7631 15.9191 15.0001 15.3468 15.0001 14.75V8.36377Z" fill="#57606A"/>
    </g>
    <defs>
        <clipPath id="clip0_19_4010">
            <rect width="18" height="18" fill="white" transform="translate(0 0.5)"/>
        </clipPath>
    </defs>
</svg>
