<svg width="18" height="22" viewBox="0 0 18 22" fill="none" xmlns="http://www.w3.org/2000/svg">
    <path d="M12.4862 3.88571L15.6092 9.0954L9.74468 21.0632L1.23087 15.2718L7.09541 3.304L12.4862 3.88571Z" stroke="#57606A"/>
    <path d="M9.82447 9.27741L10.035 10.7685L10.0787 11.0778L10.3361 11.2053L11.5772 11.82L10.8029 12.9686L10.6424 13.2067L10.7575 13.4969L11.3126 14.897L10.007 15.0301L9.73635 15.0576L9.64179 15.3406L9.18557 16.7058L8.11361 15.7454L7.89128 15.5463L7.6424 15.6563L6.44226 16.1868L6.23173 14.6957L6.18807 14.3865L5.93066 14.259L4.68953 13.6442L5.46382 12.4956L5.62431 12.2575L5.50924 11.9673L4.95412 10.5672L6.25973 10.4341L6.53038 10.4066L6.62495 10.1236L7.08117 8.75842L8.15313 9.71876L8.37545 9.91794L8.62434 9.80792L9.82447 9.27741Z" stroke="#57606A"/>
    <path d="M12.2567 5.9597C12.0907 6.29777 11.7106 6.39531 11.4115 6.19223C11.1123 5.98914 10.9941 5.5532 11.1601 5.21513C11.326 4.87706 11.7062 4.77951 12.0053 4.9826C12.3044 5.18569 12.4226 5.62163 12.2567 5.9597Z" stroke="#57606A"/>
</svg>
