<svg width="16" height="16" viewBox="0 0 16 16" fill="none" xmlns="http://www.w3.org/2000/svg">
    <path d="M11.013 1.42698C11.3411 1.09906 11.7861 0.914856 12.25 0.914856C12.7139 0.914856 13.1588 1.09906 13.487 1.42698L14.573 2.51298C14.9009 2.84114 15.0851 3.28607 15.0851 3.74998C15.0851 4.2139 14.9009 4.65883 14.573 4.98698L5.96297 13.597C5.75297 13.807 5.49297 13.961 5.20697 14.042L1.95597 14.972C1.8273 15.0088 1.69112 15.0104 1.56158 14.9768C1.43204 14.9432 1.31384 14.8756 1.21926 14.7809C1.12468 14.6862 1.05716 14.568 1.0237 14.4384C0.990237 14.3088 0.992059 14.1726 1.02897 14.044L1.95797 10.794C2.03897 10.508 2.19297 10.247 2.40297 10.036L11.013 1.42598V1.42698ZM11.189 6.24998L9.74997 4.80998L3.46397 11.097C3.43391 11.127 3.41189 11.1642 3.39997 11.205L2.84197 13.158L4.79497 12.6C4.83578 12.5881 4.87292 12.5661 4.90297 12.536L11.189 6.24998ZM12.427 2.48698C12.4038 2.4637 12.3762 2.44523 12.3458 2.43263C12.3154 2.42002 12.2829 2.41354 12.25 2.41354C12.2171 2.41354 12.1845 2.42002 12.1542 2.43263C12.1238 2.44523 12.0962 2.4637 12.073 2.48698L10.811 3.74998L12.25 5.18998L13.513 3.92698C13.5363 3.90376 13.5547 3.87617 13.5673 3.8458C13.5799 3.81543 13.5864 3.78287 13.5864 3.74998C13.5864 3.7171 13.5799 3.68454 13.5673 3.65417C13.5547 3.62379 13.5363 3.59621 13.513 3.57298L12.427 2.48698Z" fill="#24292F"/>
</svg>
