<svg width="18" height="19" viewBox="0 0 18 19" fill="none" xmlns="http://www.w3.org/2000/svg">
    <g clip-path="url(#clip0_24_4103)">
        <path d="M17.3602 7.60325L16.7699 6.8C16.3609 6.24345 15.827 5.79065 15.2111 5.47802C14.5952 5.16539 13.9146 5.00166 13.2239 5H4.78716C4.11067 5.00177 3.44363 5.15882 2.83742 5.45906C2.23121 5.75931 1.70203 6.19472 1.29066 6.73175L0.674906 7.53725C0.175018 8.19673 -0.0600125 9.01939 0.0160468 9.84341C0.0921061 10.6674 0.473749 11.4332 1.08591 11.99L7.07841 17.7703C7.60473 18.2396 8.28569 18.4984 8.99091 18.497C9.71107 18.4956 10.4054 18.2285 10.9409 17.747L16.8929 12.0223C17.5086 11.4771 17.8979 10.7213 17.9844 9.90346C18.0709 9.08567 17.8482 8.26512 17.3602 7.60325ZM15.5602 7.6835L16.1504 8.489C16.2097 8.57142 16.2619 8.65874 16.3064 8.75H12.7132C12.6589 8.39084 12.5653 8.03873 12.4342 7.7L11.9542 6.5H13.2239C13.6787 6.50086 14.127 6.60838 14.5328 6.81392C14.9385 7.01946 15.2904 7.3173 15.5602 7.6835ZM8.99241 15.566L6.91566 10.8635C6.84054 10.6646 6.78381 10.4592 6.74616 10.25H11.2102C11.1787 10.4149 11.1346 10.5771 11.0782 10.7353L8.99241 15.566ZM6.82491 8.75C6.85627 8.61554 6.89559 8.48305 6.94266 8.35325L7.68066 6.5H10.3387L11.0414 8.25725C11.1031 8.41771 11.1532 8.58238 11.1914 8.75H6.82491ZM2.48316 7.64075C2.75433 7.28701 3.10306 7.00021 3.5025 6.80244C3.90194 6.60467 4.34144 6.5012 4.78716 6.5H6.06216L5.54991 7.79675C5.42632 8.10443 5.3341 8.4238 5.27466 8.75H1.68366C1.7351 8.64399 1.79717 8.54348 1.86891 8.45L2.48316 7.64075ZM2.10816 10.8905C1.9125 10.713 1.75879 10.4942 1.65816 10.25H5.23716C5.2869 10.6541 5.38432 11.0508 5.52741 11.432L7.64766 16.232L2.10816 10.8905ZM10.3282 16.2605L12.4687 11.3C12.5929 10.9605 12.6794 10.6084 12.7267 10.25H16.3499C16.2437 10.5075 16.0816 10.738 15.8752 10.925L10.3282 16.2605Z" fill="#57606A"/>
        <path d="M8.99994 3.5C9.19886 3.5 9.38962 3.42098 9.53028 3.28033C9.67093 3.13968 9.74995 2.94891 9.74995 2.75V1.25C9.74995 1.05109 9.67093 0.860322 9.53028 0.71967C9.38962 0.579018 9.19886 0.5 8.99994 0.5C8.80103 0.5 8.61026 0.579018 8.46961 0.71967C8.32896 0.860322 8.24994 1.05109 8.24994 1.25V2.75C8.24994 2.94891 8.32896 3.13968 8.46961 3.28033C8.61026 3.42098 8.80103 3.5 8.99994 3.5Z" fill="#374957"/>
        <path d="M12.4147 3.42489C12.5032 3.46941 12.5997 3.49594 12.6986 3.50294C12.7974 3.50995 12.8967 3.49729 12.9906 3.46569C13.0846 3.4341 13.1713 3.3842 13.2459 3.31888C13.3204 3.25356 13.3813 3.17412 13.4249 3.08514L14.1749 1.58514C14.2638 1.40711 14.2784 1.20105 14.2154 1.0123C14.1524 0.823543 14.0169 0.66755 13.8389 0.578636C13.6609 0.489722 13.4548 0.475171 13.2661 0.538183C13.0773 0.601195 12.9213 0.736609 12.8324 0.914636L12.0824 2.41464C12.0376 2.50273 12.0107 2.59881 12.0032 2.69735C11.9956 2.79589 12.0076 2.89495 12.0385 2.98883C12.0694 3.08271 12.1185 3.16957 12.1831 3.2444C12.2476 3.31923 12.3263 3.38057 12.4147 3.42489Z" fill="#374957"/>
        <path d="M4.57873 3.08514C4.66765 3.26366 4.82384 3.39955 5.01294 3.46291C5.20205 3.52628 5.40858 3.51192 5.58711 3.42301C5.76563 3.3341 5.90152 3.17791 5.96489 2.9888C6.02825 2.79969 6.0139 2.59316 5.92498 2.41464L5.17498 0.914636C5.13096 0.826486 5.07 0.747871 4.99559 0.683279C4.92118 0.618687 4.83478 0.569384 4.74132 0.538183C4.55256 0.475171 4.34651 0.489722 4.16848 0.578636C3.99045 0.66755 3.85504 0.823543 3.79203 1.0123C3.72902 1.20105 3.74357 1.40711 3.83248 1.58514L4.57873 3.08514Z" fill="#374957"/>
    </g>
    <defs>
        <clipPath id="clip0_24_4103">
            <rect width="18" height="18" fill="white" transform="translate(0 0.5)"/>
        </clipPath>
    </defs>
</svg>
