<svg width="16" height="17" viewBox="0 0 16 17" fill="none" xmlns="http://www.w3.org/2000/svg">
    <path d="M10.5 0.5C11.2758 0.501755 12.0425 0.66765 12.7496 0.986785C13.4567 1.30592 14.0883 1.77107 14.6029 2.35167C15.1175 2.93228 15.5034 3.61519 15.7352 4.35554C15.9671 5.0959 16.0397 5.87694 15.9482 6.64734C15.8567 7.41774 15.6033 8.16006 15.2045 8.82554C14.8057 9.49102 14.2706 10.0646 13.6344 10.5086C12.9982 10.9525 12.2752 11.2568 11.513 11.4015C10.7508 11.5462 9.96665 11.528 9.212 11.348L8.28 12.28C8.21045 12.3497 8.12785 12.405 8.0369 12.4428C7.94596 12.4805 7.84847 12.5 7.75 12.5H7V13.25C6.99997 13.3485 6.98052 13.446 6.94277 13.5369C6.90502 13.6278 6.84971 13.7105 6.78 13.78L6.28 14.28C6.21046 14.3497 6.12785 14.405 6.0369 14.4428C5.94596 14.4805 5.84847 14.5 5.75 14.5H5V15.25C4.99997 15.3485 4.98052 15.446 4.94277 15.5369C4.90502 15.6278 4.84971 15.7105 4.78 15.78L4.28 16.28C4.21046 16.3497 4.12785 16.405 4.0369 16.4428C3.94596 16.4805 3.84847 16.5 3.75 16.5H1.75C1.28587 16.5 0.840752 16.3156 0.512563 15.9874C0.184374 15.6592 0 15.2141 0 14.75L0 12.75C0 12.551 0.079 12.361 0.22 12.22L5.152 7.288C4.95718 6.47923 4.94837 5.63679 5.12623 4.82412C5.30409 4.01145 5.66398 3.24971 6.17882 2.59625C6.69366 1.94279 7.35002 1.41463 8.09851 1.05153C8.84699 0.688434 9.66809 0.499858 10.5 0.5ZM6.5 6C6.499 6.431 6.569 6.86 6.705 7.269C6.74917 7.40119 6.75563 7.54307 6.72366 7.67873C6.69169 7.81438 6.62255 7.93845 6.524 8.037L1.5 13.06V14.75C1.5 14.888 1.612 15 1.75 15H3.44L3.5 14.94V13.75C3.5 13.5511 3.57902 13.3603 3.71967 13.2197C3.86032 13.079 4.05109 13 4.25 13H5.44L5.5 12.94V11.75C5.5 11.5511 5.57902 11.3603 5.71967 11.2197C5.86032 11.079 6.05109 11 6.25 11H7.44L8.463 9.975C8.56166 9.87662 8.68577 9.80767 8.82142 9.77588C8.95708 9.74409 9.0989 9.75071 9.231 9.795C10.0334 10.0634 10.9003 10.0705 11.707 9.81519C12.5137 9.55987 13.2186 9.05532 13.7205 8.37409C14.2223 7.69286 14.4952 6.87003 14.4999 6.02392C14.5047 5.1778 14.2409 4.35198 13.7467 3.6652C13.2525 2.97842 12.5532 2.46605 11.7494 2.20176C10.9456 1.93748 10.0787 1.93488 9.27334 2.19436C8.46798 2.45384 7.76565 2.96202 7.26732 3.64583C6.76899 4.32965 6.50035 5.15387 6.5 6ZM11 6.5C10.7348 6.5 10.4804 6.39464 10.2929 6.20711C10.1054 6.01957 10 5.76522 10 5.5C10 5.23478 10.1054 4.98043 10.2929 4.79289C10.4804 4.60536 10.7348 4.5 11 4.5C11.2652 4.5 11.5196 4.60536 11.7071 4.79289C11.8946 4.98043 12 5.23478 12 5.5C12 5.76522 11.8946 6.01957 11.7071 6.20711C11.5196 6.39464 11.2652 6.5 11 6.5Z" fill="#57606A"/>
</svg>
