<svg width="12" height="14" viewBox="0 0 12 14" fill="none" xmlns="http://www.w3.org/2000/svg">
    <path d="M8.561 7.573C9.54554 8.03835 10.385 8.76267 10.9895 9.66842C11.5941 10.5742 11.9409 11.6273 11.993 12.715C11.9999 12.8146 11.9868 12.9147 11.9544 13.0092C11.9221 13.1037 11.8713 13.1908 11.8048 13.2654C11.7384 13.34 11.6577 13.4005 11.5676 13.4435C11.4774 13.4865 11.3796 13.5111 11.2798 13.5157C11.18 13.5204 11.0803 13.5051 10.9865 13.4707C10.8928 13.4363 10.8068 13.3835 10.7337 13.3154C10.6606 13.2474 10.6018 13.1654 10.5608 13.0743C10.5198 12.9832 10.4975 12.8849 10.495 12.785C10.4405 11.6295 9.9431 10.5394 9.1061 9.74098C8.26909 8.94253 7.15676 8.49707 6 8.49707C4.84324 8.49707 3.73091 8.94253 2.89391 9.74098C2.0569 10.5394 1.55952 11.6295 1.505 12.785C1.49153 12.9806 1.40201 13.1631 1.25562 13.2935C1.10923 13.4239 0.917599 13.4918 0.721767 13.4826C0.525935 13.4735 0.34147 13.388 0.207875 13.2445C0.0742804 13.1011 0.00217583 12.911 0.0070025 12.715C0.0588634 11.6274 0.405534 10.5743 1.0099 9.66852C1.61427 8.76276 2.45359 8.0384 3.438 7.573C2.80701 7.04669 2.35347 6.33878 2.13905 5.54557C1.92464 4.75237 1.95977 3.91237 2.23967 3.13983C2.51956 2.3673 3.03064 1.69974 3.70337 1.22795C4.3761 0.75616 5.17783 0.503052 5.9995 0.503052C6.82118 0.503052 7.62291 0.75616 8.29564 1.22795C8.96837 1.69974 9.47944 2.3673 9.75934 3.13983C10.0392 3.91237 10.0744 4.75237 9.85995 5.54557C9.64554 6.33878 9.19199 7.04669 8.561 7.573ZM8.5 4.5C8.5 3.83696 8.23661 3.20107 7.76777 2.73223C7.29893 2.26339 6.66304 2 6 2C5.33696 2 4.70108 2.26339 4.23224 2.73223C3.76339 3.20107 3.5 3.83696 3.5 4.5C3.5 5.16304 3.76339 5.79892 4.23224 6.26777C4.70108 6.73661 5.33696 7 6 7C6.66304 7 7.29893 6.73661 7.76777 6.26777C8.23661 5.79892 8.5 5.16304 8.5 4.5Z" fill="#57606A"/>
</svg>

