<svg width="19" height="33" viewBox="0 0 19 33" fill="none" xmlns="http://www.w3.org/2000/svg">
    <path d="M15.2491 28.0638C16.1941 29.0832 16.9358 30.2736 17.4343 31.5712C17.5453 32.0077 17.7337 32.4208 17.9906 32.7908C18.0246 32.8453 18.0922 32.8931 18.1497 32.8715C18.2072 32.8498 18.212 32.7664 18.2082 32.7072C18.1053 30.8787 16.9392 28.8703 15.8422 27.4435L11.546 21.8919C11.0471 21.2768 10.591 20.6283 10.1806 19.9509C9.82485 19.299 9.51212 18.6245 9.24446 17.9318C7.76314 14.3312 6.3615 10.6764 4.33703 7.34327C3.65749 6.25252 2.92135 5.15446 2.63325 3.90975C2.49493 3.30038 2.46646 2.66989 2.30003 2.06858C2.11326 1.40423 1.40188 0.26235 0.680912 0.153186C0.709286 1.43669 1.08451 2.78326 1.37004 4.03904C1.65557 5.29481 2.46279 6.40065 3.05717 7.5066C3.27574 8.03261 3.45496 8.57414 3.59333 9.1267C3.80832 9.70722 4.30997 10.1707 4.63744 10.6811C5.29786 11.7412 5.38324 13.0554 5.96269 14.1754C6.3664 14.9244 6.81677 15.6473 7.31114 16.3399C9.05987 19.0025 10.3953 21.9132 12.2442 24.5087C13.1184 25.7905 14.2458 26.8861 15.2491 28.0638Z" fill="#4E2922"/>
</svg>
